<?xml version="1.0" standalone="no"?>
<!DOCTYPE svg PUBLIC "-//W3C//DTD SVG 1.1//EN" "http://www.w3.org/Graphics/SVG/1.1/DTD/svg11.dtd" >
<svg>
<metadata>
Created by FontForge 20110222 at Sat Sep 21 00:04:21 2013
 By Orthosie Webhosting
Generated by Fontographer 3.5
</metadata>
<defs>
<font id="IrisNormalNormal" horiz-adv-x="2511" >
  <font-face 
    font-family="IrisNormalNormal"
    font-weight="400"
    font-stretch="normal"
    units-per-em="4096"
    panose-1="2 2 114 0 0 0 0 0 0 0"
    ascent="3276"
    descent="-820"
    x-height="1913"
    cap-height="2736"
    bbox="-41 -864 4145 3351"
    underline-thickness="12"
    underline-position="-18"
    unicode-range="U+0020-2022"
  />
<missing-glyph horiz-adv-x="3072" 
d="M512 0v2560h2048v-2560h-2048zM2494 66v2428h-1916v-2428h1916z" />
    <glyph glyph-name=".notdef" horiz-adv-x="3072" 
d="M512 0v2560h2048v-2560h-2048zM2494 66v2428h-1916v-2428h1916z" />
    <glyph glyph-name=".null" horiz-adv-x="0" 
 />
    <glyph glyph-name="nonmarkingreturn" horiz-adv-x="0" 
 />
    <glyph glyph-name="space" unicode=" " horiz-adv-x="1249" 
 />
    <glyph glyph-name="exclam" unicode="!" horiz-adv-x="983" 
d="M655 2732l-41 -1978h-262l-33 1978h336zM635 0h-299v373h299v-373z" />
    <glyph glyph-name="quotedbl" unicode="&#x22;" horiz-adv-x="1348" 
d="M1147 2732l-49 -1094h-242l-49 1094h340zM541 2732l-54 -1094h-237l-49 1094h340z" />
    <glyph glyph-name="numbersign" unicode="#" horiz-adv-x="2478" 
d="M2220 1741l-25 -168h-520l-65 -459h520l-21 -164h-524l-115 -815h-167l114 815h-483l-115 -815h-172l115 815h-508l25 164h507l66 459h-512l25 168h507l107 749h172l-107 -749h484l102 749h172l-106 -749h524zM1503 1573h-483l-62 -459h480z" />
    <glyph glyph-name="dollar" unicode="$" 
d="M2400 770q0 -324 -102 -487q-115 -172 -303 -217q-192 -56 -533 -62q-20 0 -41 -4h-45v-307h-229v307q-315 0 -463 16q-158 13 -295 82q-127 73 -201 230q-71 148 -77 430v94h303q0 -211 24 -328q32 -120 94 -176q68 -54 185 -74q117 -18 332 -24h98v1007q-332 0 -537 41
q-206 37 -344 193q-131 155 -131 463q0 323 107 491q104 174 303 230q202 57 516 57h86v254h229v-254q374 0 553 -45q196 -45 303 -213q107 -155 107 -508h-299q0 221 -29 311q-24 101 -123 144q-83 45 -299 45h-213v-946q305 0 447 -21q174 -18 307 -90q125 -65 201 -221
q69 -158 69 -418zM1147 1520v950h-135q-228 0 -324 -21q-115 -24 -180 -118q-66 -91 -66 -299q0 -155 33 -271q41 -108 107 -155q72 -53 172 -70q72 -9 262 -16h131zM2097 733q0 243 -65 348q-65 107 -193 140q-135 26 -393 32h-70v-1003q58 0 107 -4q211 0 344 37
q127 35 201 139q69 107 69 311z" />
    <glyph glyph-name="percent" unicode="%" horiz-adv-x="3219" 
d="M3174 508q0 -202 -45 -315q-40 -101 -168 -152q-127 -45 -372 -45q-244 0 -377 45q-133 54 -172 156q-49 102 -49 311v356q0 210 49 320q43 105 172 147q117 45 377 45t372 -45q119 -41 168 -147q45 -115 45 -320v-356zM2662 2732l-1851 -2732h-188l1843 2732h196z
M1294 1872q0 -215 -45 -316q-40 -100 -168 -151q-127 -45 -372 -45q-244 0 -377 45q-133 54 -172 156q-49 102 -49 311v356q0 210 49 320q42 103 172 147q117 45 377 45t372 -45q119 -42 168 -147q45 -101 45 -320v-356zM2998 459v450q0 148 -45 209q-49 73 -131 90
q-69 17 -233 17q-168 0 -238 -21q-81 -12 -131 -86q-49 -67 -49 -209v-471q0 -139 49 -200q50 -62 127 -74q75 -17 242 -17q156 0 237 17q77 17 127 86q45 70 45 209zM1118 1823v450q0 148 -45 209q-49 73 -131 90q-69 17 -233 17q-168 0 -238 -21q-87 -12 -131 -86
q-49 -67 -49 -209v-471q0 -133 49 -200q50 -62 127 -74q75 -17 242 -17q156 0 237 17q77 17 127 86q45 70 45 209z" />
    <glyph glyph-name="ampersand" unicode="&#x26;" horiz-adv-x="2867" 
d="M2863 213l-172 -213l-401 332q-63 -127 -156 -201q-108 -74 -213 -106q-108 -34 -233 -41q-176 -9 -291 -9q-357 0 -529 21q-191 18 -340 98q-143 88 -217 266q-78 181 -78 508q0 276 74 418q76 151 189 205q106 51 295 78q-153 133 -197 221q-49 91 -49 287
q0 269 98 405q102 139 270 180q163 41 443 41q297 0 454 -49q165 -42 254 -188q86 -139 86 -426q0 -115 -4 -148h-299q0 8 -2 42t-2 57q0 228 -45 311q-34 87 -135 115q-110 20 -348 20q-165 0 -246 -16q-102 -22 -156 -86q-61 -61 -61 -209q0 -150 49 -242q50 -87 180 -192
l1024 -856q9 94 9 192v94q-5 37 -5 82h304q0 -65 4 -119v-118q0 -145 -33 -361zM2048 520l-1065 881q-211 -56 -287 -90q-78 -33 -114 -131q-41 -93 -41 -308q0 -193 20 -323q27 -124 82 -184q61 -68 176 -99q106 -22 320 -28h266q183 0 287 16q121 12 221 74
q105 62 135 192z" />
    <glyph glyph-name="quotesingle" unicode="'" horiz-adv-x="750" 
d="M549 2732l-53 -1094h-246l-49 1094h348z" />
    <glyph glyph-name="parenleft" unicode="(" horiz-adv-x="1135" 
d="M938 -434h-41q-20 -4 -45 -4q-215 0 -336 69q-118 59 -184 185q-60 120 -78 266q-16 122 -29 377v1278q0 296 17 446q19 178 86 295q63 139 209 205q148 74 401 74v-258q-150 0 -250 -45q-84 -43 -115 -127q-30 -81 -36 -201q0 -60 -2.5 -138t-2.5 -133v-1511
q7 -168 21 -287q19 -103 90 -168q75 -69 238 -69l57 4v-258z" />
    <glyph glyph-name="parenright" unicode=")" horiz-adv-x="1135" 
d="M938 459q-6 -298 -45 -484q-47 -196 -172 -299q-133 -114 -410 -114q-24 0 -41 4h-45v258l58 -4q162 0 236.5 68.5t86.5 168.5q19 98 25 287v1511q0 40 -2 126t-2 133q-5 120 -33 213q-30 82 -119 127q-92 45 -250 45v258q252 0 402 -74q142 -65 213 -201
q63 -133 82 -299q16 -147 16 -446v-1278z" />
    <glyph glyph-name="asterisk" unicode="*" 
d="M1987 2142l-562 -200l336 -480l-159 -119l-340 496l-365 -496l-160 119l348 480l-557 212l70 193l561 -205v590h201v-590l557 209z" />
    <glyph glyph-name="plus" unicode="+" horiz-adv-x="2048" 
d="M1954 1311h-844v-791h-176v791h-840v168h840v790h176v-790h844v-168z" />
    <glyph glyph-name="comma" unicode="," horiz-adv-x="827" 
d="M582 -29q0 -192 -58 -278q-56 -94 -225 -94h-41q-16 4 -41 4v151q102 6 139 49q41 35 41 148q0 37 -4 49h-135v373h324v-402z" />
    <glyph glyph-name="hyphen" unicode="-" horiz-adv-x="2048" 
d="M1954 1311h-1860v172h1860v-172z" />
    <glyph glyph-name="period" unicode="." horiz-adv-x="815" 
d="M569 0h-323v373h323v-373z" />
    <glyph glyph-name="slash" unicode="/" horiz-adv-x="2646" 
d="M2363 2732l-2113 -3133h-221l2105 3133h229z" />
    <glyph glyph-name="zero" unicode="0" 
d="M2413 905q0 -325 -103 -524q-94 -202 -278 -303q-177 -98 -414 -98h-713q-243 0 -426 98q-179 92 -278 303q-103 199 -103 524v938q0 321 99 524q100 209 282 299q171 95 418 95h721q366 0 582 -221q213 -226 213 -705v-930zM2105 905v922q0 206 -32 344
q-31 125 -111 201q-76 70 -205 94q-150 28 -348 28h-303q-288 0 -447 -57q-145 -61 -200 -201q-47 -134 -53 -413v-918q0 -276 73 -418q74 -143 221 -192t402 -49h311q243 0 389 49t226 188q77 156 77 422z" />
    <glyph glyph-name="one" unicode="1" 
d="M1610 0h-287v2499l-700 -770l-193 180l754 823h426v-2732z" />
    <glyph glyph-name="two" unicode="2" 
d="M2187 0h-1966v508q0 331 115 487q112 156 295 205q157 42 549 82q263 28 389 45q74 11 164 66q83 54 118 168q37 114 37 327t-28 328q-31 116 -99 172q-82 62 -192 78q-164 16 -340 16q-328 0 -467 -37q-149 -43 -197 -155q-49 -110 -49 -377v-115h-295q0 322 41 496
q43 177 148 274q96 98 299 144q196 36 524 36q360 0 561 -61q199 -60 299 -250q94 -190 94 -553q0 -268 -53 -438q-42 -153 -147 -242q-106 -85 -254 -114q-163 -40 -463 -74q-286 -32 -381 -49q-92 -13 -189 -62q-83 -41 -135 -143q-49 -104 -49 -283v-209h1671v-270z" />
    <glyph glyph-name="three" unicode="3" 
d="M2241 791q0 -281 -50 -443q-47 -154 -163 -242q-116 -77 -299 -106q-192 -25 -512 -25q-226 0 -426 21q-170 18 -304 94q-131 71 -204 229q-74 152 -74 406q0 127 4 164h299v-160q0 -174 33 -270q31 -98 106 -144q80 -46 197 -57q95 -9 364 -16q338 0 488 32
q136 32 184 140q49 108 49 372q0 216 -53.5 316t-167.5 131q-107 33 -336 33h-377v266h349q190 0 282 16q106 20 156 70q54 48 74 143q20 77 20 271q0 179 -29 270q-27 83 -102 131q-72 37 -184 49q-148 8 -353 8q-219 0 -376 -20q-134 -24 -197 -74q-53 -38 -74 -110
q-12 -67 -12 -197v-197h-291q0 373 74 557q74 175 270 242q192 66 602 66q291 0 475 -25.5t287 -93.5q114 -66 164 -209q53 -129 53 -365q0 -253 -45 -393q-40 -128 -139 -188q-82 -50 -266 -82q206 -26 311 -90q99 -58 152 -189q41 -133 41 -331z" />
    <glyph glyph-name="four" unicode="4" 
d="M2351 631h-409v-631h-291v623h-1540v368l1372 1741h459v-1843h409v-258zM1651 889v1642l-1286 -1642h1286z" />
    <glyph glyph-name="five" unicode="5" 
d="M2253 999q0 -324 -33 -524q-37 -194 -139 -303q-101 -114 -287 -156q-204 -45 -524 -45q-273 0 -459 25q-169 18 -299 98q-122 75 -193 246q-59 144 -65 442h303q0 -185 25 -286q25 -104 94 -156q63 -57 209 -82q157 -20 385 -20q259 0 409 32q135 37 201 164
q70 117 70 393q0 259 -13 377q-12 127 -69 221q-57 89 -185 131q-113 46 -360 46q-301 0 -430 -21q-145 -24 -205 -78q-53 -48 -86 -155h-291v1368h1839v-267h-1548v-807q111 148 287 185q174 41 430 41q336 0 541 -74q202 -79 299 -266q94 -196 94 -529z" />
    <glyph glyph-name="six" unicode="6" 
d="M2241 2109q0 -28 -5 -45v-36h-290q4 8 4 32v33q0 181 -54 258q-43 77 -188 111q-141 24 -442 24q-201 0 -389 -16q-143 -24 -222 -78q-78 -54 -114 -160q-33 -115 -33 -295v-532q44 98 110 151q78 58 218 86q141 29 430 29t442 -29q178 -31 283 -106q119 -88 168 -246
q57 -147 57 -434q0 -281 -49 -450q-54 -175 -164 -267q-105 -92 -283 -131q-182 -37 -450 -37q-251 0 -488 29q-191 39 -315 127q-131 93 -193 279q-63 165 -69 479v1003q0 277 49 434q43 170 160 263q122 95 315 131q208 37 537 37q324 0 540 -33q202 -39 316 -176
q119 -138 119 -435zM1917 819q0 267 -41 377q-37 120 -172 164q-140 45 -438 45q-270 0 -402 -16q-148 -20 -221 -66q-79 -53 -106 -135q-22 -61 -29 -246q0 -255 29 -385q30 -135 106 -205t217 -94q98 -13 410 -20q290 0 438 41q131 43 168 159q41 105 41 381z" />
    <glyph glyph-name="seven" unicode="7" 
d="M2187 2343l-1323 -2343h-364l1433 2462h-1736v270h1990v-389z" />
    <glyph glyph-name="eight" unicode="8" 
d="M2253 786q0 -259 -41.5 -409t-151.5 -242q-109 -85 -307 -123q-202 -37 -524 -37q-302 0 -488 25q-182 19 -299 98q-115 81 -176 246q-57 171 -57 455q0 213 37 327q36 123 139 189q92 63 295 106q-187 38 -279 111q-96 71 -127 180q-26 100 -32 311q0 247 49 394
q52 148 155 217q112 74 291 98q186 25 492 25q307 0 491 -25q184 -18 291 -94q104 -69 156 -217q49 -140 49 -389q0 -208 -29 -316q-30 -112 -127 -184q-91 -67 -282 -111q196 -35 303 -110q102 -70 139 -193q33 -123 33 -332zM1905 2023q0 227 -41 312q-43 90 -176 127
q-159 28 -459 28q-262 0 -377 -16q-126 -12 -188 -61q-57 -40 -82 -132q-21 -92 -21 -258q0 -155 25 -245q17 -84 90 -144q70 -49 196 -73q139 -21 357 -21q317 0 450 41q141 37 185 135q41 113 41 307zM1946 762q0 226 -50 332q-43 105 -192 143q-139 41 -475 41
q-344 0 -463 -33q-143 -36 -197 -139q-53 -106 -53 -352q0 -241 53 -340q46 -98 197 -135q114 -27 463 -33q205 0 377 16q140 19 209 70q70 47 102 147q29 96 29 283z" />
    <glyph glyph-name="nine" unicode="9" 
d="M2241 836q0 -263 -46 -439q-48 -166 -163 -258q-113 -93 -316 -131q-202 -37 -536 -37q-327 0 -537 33q-199 38 -315 172q-119 143 -119 438v82h291v-65q6 -143 28 -209q29 -74 99 -119q90 -44 200 -49q115 -16 353 -16q232 0 389 20q141 18 221 74q77 54 115 160
q32 117 32 294v533q-70 -146 -213 -205q-146 -61 -544 -61q-282 0 -443 28q-178 34 -282 111q-115 82 -168 242q-54 173 -54 430q0 277 50 450q53 176 159 271q106 93 287 131q177 37 447 37q261 0 491 -29q188 -37 315 -127q133 -96 193 -275q66 -173 66 -483v-1003z
M1937 1782q0 263 -28 389q-26 132 -107 201q-75 69 -213 94q-157 20 -413 20q-313 0 -435 -41q-127 -41 -172 -155q-41 -114 -41 -385q0 -263 41 -377q43 -115 176 -164q133 -45 435 -45q270 0 401 16q148 20 221 66q77 48 107 135q28 80 28 246z" />
    <glyph glyph-name="colon" unicode=":" horiz-adv-x="815" 
d="M569 1540h-323v373h323v-373zM569 0h-323v373h323v-373z" />
    <glyph glyph-name="semicolon" unicode=";" horiz-adv-x="745" 
d="M479 1540h-323v373h323v-373zM500 -29q0 -192 -58 -278q-55 -94 -225 -94h-41q-16 4 -41 4v151q102 6 139 49q41 35 41 148q0 37 -4 49h-135v373h324v-402z" />
    <glyph glyph-name="less" unicode="&#x3c;" horiz-adv-x="2048" 
d="M1909 397l-1774 836v278l1774 836v-319l-1434 -656l1434 -659v-316z" />
    <glyph glyph-name="equal" unicode="=" horiz-adv-x="2048" 
d="M1954 1602h-1860v167h1860v-167zM1954 1024h-1860v168h1860v-168z" />
    <glyph glyph-name="greater" unicode="&#x3e;" horiz-adv-x="2048" 
d="M1913 1233l-1774 -836v316l1434 659l-1434 660v315l1774 -840v-274z" />
    <glyph glyph-name="question" unicode="?" horiz-adv-x="2130" 
d="M1929 2015q0 -261 -53 -413q-57 -157 -139 -234q-81 -68 -213 -119q-32 -12 -127 -44.5t-119 -41.5q-180 -62 -180 -307v-70h-299q0 215 28 324q31 111 119 180q86 73 275 148q175 69 221 94q74 36 119 94q49 57 61 135q20 90 20 221q0 249 -49 353q-46 98 -159 131
q-111 24 -381 24q-247 0 -357 -41q-112 -37 -147 -127q-37 -84 -37 -262v-184h-287q0 259 33 434q31 163 119 262q82 95 241 140q157 41 426 41q241 0 402 -25q149 -23 262 -98q108 -73 164 -222q57 -151 57 -393zM1102 0h-324v373h324v-373z" />
    <glyph glyph-name="at" unicode="@" horiz-adv-x="2576" 
d="M2417 1413q0 -375 -41 -561q-51 -190 -123 -246q-75 -57 -201 -57q-119 0 -217 53q-89 54 -115 168q-97 -233 -491 -233q-227 0 -340 90q-108 79 -148 237q-36 148 -36 385q0 245 40 385q37 141 160 226q129 77 352 77q324 0 426 -188v180h197v-934q7 -147 29 -217
q24 -73 131 -73q71 0 114 45q45 38 70 188q25 144 25 463q0 342 -29 483q-23 154 -119 238q-93 75 -278 98q-215 21 -578 21q-345 0 -512 -29q-171 -31 -254 -127q-86 -100 -110 -275q-25 -168 -25 -544q0 -384 29 -570q29 -191 123 -303q96 -109 266 -143q170 -37 504 -37
q242 0 430 8q132 6 221 37q61 12 106 90l140 -98q-70 -127 -209 -164q-106 -26 -238 -37q-180 -8 -389 -8q-359 0 -565 33q-198 23 -336 143q-133 121 -193 365q-61 256 -61 688q0 390 49 614q49 221 164 336q110 115 311 160q202 37 549 37q412 0 627 -29q222 -38 340 -131
q115 -98 164 -291q41 -217 41 -553zM1679 1180v176q0 224 -82 323q-81 95 -299 95q-157 0 -245 -37q-78 -46 -107 -148q-22 -93 -28 -340q0 -218 28 -348q26 -115 94 -151q64 -41 209 -41q185 0 283 49q85 39 119 143q28 87 28 279z" />
    <glyph glyph-name="A" unicode="A" horiz-adv-x="2626" 
d="M2548 0h-324l-213 561h-1380l-209 -561h-328l996 2732h438zM1921 827l-606 1680l-602 -1680h1208z" />
    <glyph glyph-name="B" unicode="B" horiz-adv-x="2523" 
d="M2347 786q0 -259 -61 -430q-61 -169 -218 -266q-161 -90 -417 -90h-1389v2732h1311q255 0 401 -61q150 -60 226 -209q69 -152 69 -406q0 -170 -24 -287q-21 -120 -99 -196q-67 -85 -221 -139q184 -51 266 -127q93 -81 123 -205q33 -123 33 -316zM1962 2032q0 170 -37 262
q-35 88 -127 131q-94 37 -258 37h-975v-922h865q213 0 323 41q111 43 160 148q49 102 49 303zM2040 770q0 225 -45 320q-42 99 -148 143q-98 41 -315 41h-967v-1004h840q270 0 389 29q129 24 184 131q62 112 62 340z" />
    <glyph glyph-name="C" unicode="C" horiz-adv-x="2421" 
d="M2327 913q0 -319 -37 -495q-38 -180 -144 -275q-112 -99 -311 -135q-214 -37 -590 -37q-404 0 -594 45q-201 42 -311.5 177t-146.5 401q-31 259 -37 762q0 500 37 766q36 262 147 397q108 139 307 180q184 45 598 45q374 0 565 -41q203 -42 299 -139q102 -100 132 -254
q35 -150 49 -450h-295q-27 277 -41 352q-11 81 -78 155q-61 61 -205 87q-157 20 -426 20q-311 0 -463 -37q-149 -36 -217 -147q-65 -93 -86 -299q-16 -254 -16 -635q0 -464 16 -639q20 -200 86 -299q64 -105 217 -144q148 -36 463 -36q279 0 451 20q147 18 217 82
q75 62 98 188q21 143 21 385h295z" />
    <glyph glyph-name="D" unicode="D" horiz-adv-x="2671" 
d="M2519 1364q0 -347 -29 -561q-22 -216 -114 -414q-96 -184 -283 -287q-199 -102 -496 -102h-1339v2732h1262q336 0 540 -98q204 -102 303 -283q105 -195 127 -414q29 -209 29 -573zM2212 1364q0 443 -70 672q-68 233 -233 331q-164 95 -459 95h-889v-2192h893
q295 0 459 95q160 89 229 327q70 229 70 672z" />
    <glyph glyph-name="E" unicode="E" horiz-adv-x="2167" 
d="M2011 2462h-1458v-930h1389v-266h-1389v-996h1450v-270h-1753v2732h1761v-270z" />
    <glyph glyph-name="F" unicode="F" horiz-adv-x="1987" 
d="M1921 2462h-1364v-955h1331v-266h-1331v-1241h-303v2732h1667v-270z" />
    <glyph glyph-name="G" unicode="G" horiz-adv-x="2535" 
d="M2417 1081q0 -359 -37 -573q-45 -217 -156 -328q-109 -115 -323 -164q-231 -45 -590 -45q-386 0 -594 37q-208 45 -324 172q-114 125 -164 402q-45 289 -45 774q0 506 49 782q43 275 168 406q118 130 316 168q202 36 594 36q366 0 581 -36q202 -29 328 -115
q109 -68 156 -209q41 -126 41 -352v-107h-295q0 212 -29 307q-25 110 -106 160q-86 59 -230 70q-196 16 -450 16q-343 0 -484 -33q-159 -36 -225 -139q-71 -101 -90 -303q-9 -150 -16 -651q0 -385 16 -647q18 -194 90 -295q65 -106 225 -144q137 -26 484 -32q271 0 442 32
q165 37 242 107q82 71 106 192q25 115 25 328v274h-873v267h1168v-357z" />
    <glyph glyph-name="H" unicode="H" horiz-adv-x="2732" 
d="M2466 0h-303v1257h-1598v-1257h-303v2736h303v-1212h1598v1212h303v-2736z" />
    <glyph glyph-name="I" unicode="I" horiz-adv-x="815" 
d="M565 4h-307v2732h307v-2732z" />
    <glyph glyph-name="J" unicode="J" horiz-adv-x="2056" 
d="M1794 750q0 -281 -70 -431q-62 -165 -249 -253q-182 -86 -521 -86q-343 0 -528 77q-175 72 -250 242q-70 173 -70 451v245h300v-200q0 -170 20 -287q23 -105 82 -164q54 -54 160 -74q76 -13 286 -20q212 0 328 49q109 49 164 164q45 121 45 336v1929h303v-1978z" />
    <glyph glyph-name="K" unicode="K" horiz-adv-x="2548" 
d="M2507 0h-418l-1253 1270h-267v-1270h-303v2736h303v-1196h271l1114 1192h405l-1249 -1323z" />
    <glyph glyph-name="L" unicode="L" horiz-adv-x="2040" 
d="M1966 0h-1687v2732h307v-2458h1380v-274z" />
    <glyph glyph-name="M" unicode="M" horiz-adv-x="3514" 
d="M3224 0h-304v2511l-1032 -2511h-262l-1040 2486v-2486h-303v2736h508l962 -2343l967 2343h504v-2736z" />
    <glyph glyph-name="N" unicode="N" horiz-adv-x="2851" 
d="M2597 2732l-4 -2732h-479l-1536 2470v-2470h-304v2732h484l1536 -2494v2494h303z" />
    <glyph glyph-name="O" unicode="O" horiz-adv-x="2802" 
d="M2548 1364q0 -506 -41 -758q-45 -273 -156 -401q-118 -136 -332 -185q-230 -45 -622 -45q-385 0 -623 45q-217 50 -328 185q-113 138 -155 401q-41 249 -41 758q7 554 41 758q43 270 155 401q114 131 332 180q223 45 619 45q400 0 622 -45q214 -47 332 -184
q112 -129 156 -397q41 -258 41 -758zM2241 1360q0 403 -21 639q-23 200 -102 311q-86 109 -238 139q-140 33 -483 33q-344 0 -479 -33q-158 -30 -238 -135q-72 -94 -98 -311q-25 -199 -25 -639q6 -439 25 -635q25 -214 102 -315q77 -108 234 -140q170 -32 479 -32
q352 6 483 32q159 31 238 140q79 111 102 307q21 243 21 639z" />
    <glyph glyph-name="P" unicode="P" horiz-adv-x="2408" 
d="M2286 1946q0 -267 -41 -435q-44 -168 -144 -262q-94 -94 -278 -139q-189 -41 -451 -41h-815v-1069h-303v2732h1302q268 0 435 -86q154 -83 229 -258q66 -175 66 -442zM1978 1888q0 192 -28 336q-32 120 -131 176q-94 62 -299 62h-963v-1127h729q259 0 414 33
q139 31 209 152q69 118 69 368z" />
    <glyph glyph-name="Q" unicode="Q" horiz-adv-x="2712" 
d="M2650 332l-127 -209l-205 139q-98 -123 -250 -188q-132 -63 -311 -82q-163 -17 -450 -17q-387 0 -623 45q-215 50 -332 185q-113 140 -155 401q-35 239 -41 758q0 469 41 758q43 267 155 397q118 136 332 184q228 45 623 45q398 0 626 -45q216 -48 336 -180
q110 -127 160 -401q41 -249 41 -758q0 -718 -49 -877zM2163 1364q0 422 -25 639q-24 210 -102 311q-81 105 -242 135q-135 33 -487 33q-339 0 -480 -33q-157 -30 -237 -135q-74 -105 -98 -311q-25 -199 -25 -639q0 -436 25 -635q24 -207 102 -315q71 -102 233 -140
q137 -26 480 -32q341 0 512 32q158 31 249 148l-851 553l143 213l786 -520q17 64 17 696z" />
    <glyph glyph-name="R" unicode="R" horiz-adv-x="2552" 
d="M2351 1933q0 -228 -29 -352q-24 -127 -127 -229q-89 -91 -315 -135q434 -31 434 -525v-692h-307v623q0 185 -53 278q-55 104 -168 148q-114 41 -291 41h-934v-1090h-303v2728h1294q314 0 484 -70q167 -68 241 -241q74 -164 74 -484zM2040 1864q0 235 -29 348
q-30 119 -135 180q-103 66 -320 66h-995v-1106h889q228 0 344 41q133 45 184 151q62 118 62 320z" />
    <glyph glyph-name="S" unicode="S" horiz-adv-x="2294" 
d="M2183 786q0 -268 -45 -434q-43 -152 -160 -237q-107 -79 -295 -111q-184 -29 -520 -29q-244 0 -458 21q-182 25 -308 94q-135 77 -200 225q-70 154 -70 398v131h299q0 -284 49 -406q47 -118 193 -159q145 -31 495 -37q229 0 402 28q153 31 217 90q61 55 82 148
q16 76 16 250q0 157 -25 241q-32 93 -102 140q-73 52 -209 69q-120 23 -373 29q-352 18 -577 82q-213 59 -332 221q-115 158 -115 459q0 324 99 483q95 157 307 213q200 49 610 49q263 0 433.5 -24.5t291.5 -98.5q116 -73 176 -217q62 -148 62 -389l4 -41h-299
q0 211 -45 320q-45 100 -184 143q-129 41 -439 41q-306 0 -450 -41q-153 -43 -209 -135q-58 -103 -58 -287q0 -161 37 -250.5t127 -138.5q103 -48 246 -65q147 -19 459 -37q291 -11 491 -78q188 -69 283 -221q94 -165 94 -439z" />
    <glyph glyph-name="T" unicode="T" horiz-adv-x="2191" 
d="M2126 2458h-881v-2458h-307v2458h-893v274h2081v-274z" />
    <glyph glyph-name="U" unicode="U" horiz-adv-x="2683" 
d="M2421 799q0 -302 -66 -463q-74 -174 -205 -250q-123 -81 -319 -106q-199 -21 -492 -21q-274 0 -479 21q-187 25 -315 106q-131 77 -205 250q-70 179 -70 463v1917h303v-1917q0 -244 58 -373q57 -119 213 -156q174 -41 499 -41q349 0 504 41q156 37 213 156q58 110 58 373
v1917h303v-1917z" />
    <glyph glyph-name="V" unicode="V" horiz-adv-x="2343" 
d="M2363 2732l-966 -2732h-443l-974 2732h327l873 -2486l852 2486h331z" />
    <glyph glyph-name="W" unicode="W" horiz-adv-x="4198" 
d="M4141 2732l-860 -2732h-467l-717 2458l-733 -2458h-459l-839 2732h315l749 -2494l738 2494h454l734 -2494l766 2494h319z" />
    <glyph glyph-name="X" unicode="X" horiz-adv-x="2499" 
d="M2482 0h-368l-848 1253l-848 -1253h-369l975 1413l-897 1319h365l774 -1167l774 1167h364l-897 -1319z" />
    <glyph glyph-name="Y" unicode="Y" horiz-adv-x="2454" 
d="M2417 2732l-1033 -1589v-1143h-307v1143l-1003 1589h340l827 -1307l827 1307h349z" />
    <glyph glyph-name="Z" unicode="Z" horiz-adv-x="2322" 
d="M2228 0h-2130v270l1712 2192h-1658v270h2039v-291l-1720 -2171h1757v-270z" />
    <glyph glyph-name="bracketleft" unicode="[" horiz-adv-x="1135" 
d="M922 -410h-697v3142h697v-233h-394v-2675h394v-234z" />
    <glyph glyph-name="backslash" unicode="\" horiz-adv-x="2646" 
d="M2621 -401h-221l-2113 3133h229z" />
    <glyph glyph-name="bracketright" unicode="]" horiz-adv-x="1135" 
d="M909 -410h-696v234h393v2670h-393v238h696v-3142z" />
    <glyph glyph-name="asciicircum" unicode="^" horiz-adv-x="2048" 
d="M1921 1532h-303l-594 987l-594 -987h-299l713 1204h364z" />
    <glyph glyph-name="underscore" unicode="_" horiz-adv-x="2048" 
d="M2048 -504h-2048v209h2048v-209z" />
    <glyph glyph-name="grave" unicode="`" horiz-adv-x="2048" 
d="M1368 2294l-94 -148l-590 361l143 196z" />
    <glyph glyph-name="a" unicode="a" horiz-adv-x="2077" 
d="M1835 0h-274l12 201q-75 -99 -160 -152q-65 -40 -184 -61q-114 -13 -299 -13q-269 0 -418 45q-157 43 -250 173q-86 136 -86 385q0 241 90 368q102 126 254 168q157 41 410 41q218 0 348 -20q117 -26 160 -58q45 -38 94 -119v230q0 243 -41 348q-36 107 -148 143
q-115 33 -360 33q-190 0 -266 -20q-94 -26 -135.5 -86t-49.5 -185l5 -57h-295q0 199 57 307q58 115 152 168q88 45 229 66q115 16 319 16q294 0 471 -45q175 -48 271 -193q94 -151 94 -434v-1249zM1548 561q0 180 -53 250q-48 77 -180 102q-132 21 -406 21q-237 0 -340 -66
q-102 -64 -102 -258q0 -245 102 -323q98 -86 344 -86q248 0 357 16q119 17 200 98q78 72 78 246z" />
    <glyph glyph-name="b" unicode="b" horiz-adv-x="2073" 
d="M1888 946q0 -350 -53 -545q-56 -212 -217 -319q-166 -111 -496 -111q-170 0 -278 25q-98 16 -180 78q-75 51 -152 168l12 -242h-282v2732h290v-1040q65 87 140 143q71 53 184 78q117 24 299 24q243 0 393 -69q148 -73 221 -201q73 -125 99 -303q20 -185 20 -418z
M1593 942q0 238 -12 361q-12 125 -61 221q-59 92 -160 131q-101 45 -303 45q-237 0 -344 -78q-110 -79 -148 -233q-33 -177 -33 -447q0 -245 13 -385q10 -106 61 -205q57 -82 160 -110q116 -33 303 -33q243 0 361 78q109 79 135 221q28 132 28 434z" />
    <glyph glyph-name="c" unicode="c" horiz-adv-x="2007" 
d="M1835 692q-12 -219 -61 -364q-46 -132 -148 -222q-96 -77 -237 -106q-163 -33 -377 -33q-265 0 -414 41q-154 44 -246 148q-85 103 -123 295q-36 190 -36 503t36 504q37 190 123 295q99 112 246 148q149 41 410 41q260 0 434 -50q165 -48 262 -180q96 -127 102 -360
q0 -17 -4 -29v-33h-278q0 157 -41 254q-33 77 -144 123q-102 37 -331 37q-192 0 -283 -29q-106 -32 -152 -106q-50 -68 -69 -217q-17 -202 -17 -389q0 -224 21 -390q11 -136 65 -225q50 -80 156 -110q104 -33 283 -33q237 0 336 41q108 36 151 139q38 86 57 307h279z" />
    <glyph glyph-name="d" unicode="d" horiz-adv-x="2077" 
d="M1806 0h-282l12 242q-77 -117 -152 -168q-82 -62 -180 -78q-108 -25 -278 -25q-329 0 -496 111q-161 107 -217 319q-46 171 -53 545q0 251 24 418q20 173 95 303q73 128 221 201q150 69 393 69q277 0 397 -57q129 -55 226 -188v1040h290v-2732zM1516 942q0 300 -33 447
q-38 154 -148 233q-107 78 -344 78q-198 0 -299 -45q-110 -43 -160 -135q-55 -106 -65 -217q-12 -129 -12 -361q0 -302 28 -434q26 -142 135 -221q118 -78 361 -78q187 0 303 33q103 28 160 110q49 81 61 205q13 140 13 385z" />
    <glyph glyph-name="e" unicode="e" horiz-adv-x="2056" 
d="M1868 586q0 -273 -90 -406q-93 -128 -258 -172q-177 -37 -480 -37q-236 0 -413 45q-165 53 -250 156q-98 123 -131 299q-41 208 -41 492q0 313 41 487q35 184 131 299q96 110 250 152q143 45 409 45q264 0 414 -45q146 -36 250 -140q91 -104 127 -274q41 -163 41 -438
v-144h-1376q6 -301 49 -446q42 -141 151 -201q120 -57 348 -57q238 0 349 24q116 21 151 86q41 64 41 213v62h287zM1581 1126q0 173 -20 295q-26 115 -82 176q-49 60 -164 95q-99 24 -279 24q-228 0 -344 -49q-109 -49 -151 -172q-39 -109 -45 -369h1085z" />
    <glyph glyph-name="f" unicode="f" horiz-adv-x="1102" 
d="M1114 1679h-504v-1679h-291v1679h-290v234h290v282q0 323 148 447q141 123 467 123q49 0 90 -4q23 0 53 -2t37 -2v-238q-90 8 -209 8q-162 0 -229 -73q-66 -73 -66 -234v-307h504v-234z" />
    <glyph glyph-name="g" unicode="g" horiz-adv-x="2085" 
d="M1851 -123q0 -305 -77 -455q-72 -153 -250 -217q-177 -61 -508 -61q-298 6 -430 49q-158 45 -238 180q-82 139 -82 402h266q7 -166 54 -258q41 -78 131 -111q91 -24 266 -24q215 0 352 28q115 29 185 131q57 104 57 312v380q-79 -159 -242 -213q-162 -49 -389 -49
q-298 0 -459 107q-163 110 -225 307q-57 202 -57 496q0 260 20 450q27 188 94 311q72 136 234 218q152 73 418 73q127 0 250 -20q123 -29 209 -82q90 -60 159 -168l-12 246h274v-2032zM1561 963q0 274 -33 442q-38 149 -152 221q-111 70 -352 70q-191 0 -299 -41
q-113 -47 -152 -123q-49 -88 -61 -213q-12 -123 -12 -356q6 -318 28 -451q30 -148 144 -229q105 -78 364 -78q230 0 344 78q110 79 148 233q33 177 33 447z" />
    <glyph glyph-name="h" unicode="h" horiz-adv-x="2097" 
d="M1855 0h-290v1294q0 176 -41 267q-49 91 -144 127q-104 32 -270 32q-237 0 -365 -61q-123 -62 -172 -197q-45 -138 -45 -368v-1094h-290v2736h290v-1040q89 162 234 205q144 49 373 49q275 0 426 -66q159 -61 225 -213q69 -156 69 -430v-1241z" />
    <glyph glyph-name="i" unicode="i" horiz-adv-x="782" 
d="M537 2417h-291v315h291v-315zM537 0h-291v1913h291v-1913z" />
    <glyph glyph-name="j" unicode="j" horiz-adv-x="762" 
d="M520 2417h-291v315h291v-315zM520 -176q0 -264 -90 -414q-94 -151 -336 -151q-54 0 -135 16v205q25 0 33 -4q154 0 196 86q41 81 41 262v2089h291v-2089z" />
    <glyph glyph-name="k" unicode="k" horiz-adv-x="1909" 
d="M1896 0h-376l-811 922h-115v-922h-291v2732h291v-1589h115l688 770h352l-815 -881z" />
    <glyph glyph-name="l" unicode="l" horiz-adv-x="782" 
d="M537 0h-291v2732h291v-2732z" />
    <glyph glyph-name="m" unicode="m" horiz-adv-x="3346" 
d="M3092 0h-290v1286q0 244 -86 336q-94 86 -340 86q-561 0 -561 -446v-1262h-291v1262q-6 178 -45 278q-29 86 -123 131q-92 37 -279 37q-217 0 -327 -66q-122 -62 -164 -192q-49 -128 -49 -352v-1098h-291v1913h274v-287q167 320 631 320q202 0 381 -70q164 -73 225 -250
q185 320 651 320q258 0 402 -66q152 -70 217 -217q65 -142 65 -401v-1262z" />
    <glyph glyph-name="n" unicode="n" horiz-adv-x="2109" 
d="M1864 0h-291v1241q0 197 -37 295q-37 103 -135 139q-93 41 -299 41q-289 0 -426 -131q-144 -132 -144 -414v-1167h-290v1909h270v-246q104 165 266 225q162 62 385 62q264 0 414 -66q156 -63 217 -209q70 -140 70 -413v-1266z" />
    <glyph glyph-name="o" unicode="o" horiz-adv-x="2089" 
d="M1888 958q0 -331 -41 -516q-42 -193 -139 -295q-93 -99 -254 -143q-157 -37 -414 -37q-340 0 -520 74q-171 74 -246 283q-73 201 -73 630q0 428 73 635q75 209 246 283q174 74 520 74q341 0 521 -74q175 -73 249 -283q78 -201 78 -631zM1593 958q0 304 -20 422
q-17 134 -70 213q-57 76 -160 95q-81 20 -303 20q-215 0 -303 -20q-93 -19 -151 -95q-57 -75 -74 -217q-9 -108 -16 -422q0 -262 24 -409q25 -152 86 -226q57 -69 156 -94q108 -20 278 -20q231 0 344 45q119 46 160 205q49 151 49 503z" />
    <glyph glyph-name="p" unicode="p" horiz-adv-x="2093" 
d="M1896 963q0 -228 -20 -418q-23 -168 -98 -299.5t-222 -204.5q-152 -70 -393 -70q-216 0 -372 49q-152 49 -250 197v-1040h-291v2732h282l-12 -242q104 152 250 209q146 61 360 61q332 0 496 -110q160 -107 217 -316q53 -217 53 -548zM1602 967q0 287 -25 434
q-30 142 -139 220.5t-361 78.5q-253 0 -364 -70q-112 -68 -144 -213q-28 -171 -28 -450q0 -295 37 -447q30 -152 143 -233q124 -78 344 -78q256 0 369 78q108 78 139 225q29 148 29 455z" />
    <glyph glyph-name="q" unicode="q" horiz-adv-x="2093" 
d="M1843 -823h-291v1040q-91 -146 -249 -197q-158 -49 -373 -49q-241 0 -393 70q-144 71 -222 205q-77 135 -94 299q-24 171 -24 418q0 331 53 548q50 204 217 316q165 110 496 110q214 0 360 -61q144 -54 250 -209l-12 242h282v-2732zM1552 967q0 278 -28 450
q-32 145 -144 213q-110 70 -364 70q-252 0 -361 -78q-107 -78 -139 -221q-24 -141 -24 -434q6 -317 28 -455q31 -144 144 -225q105 -78 364 -78q222 0 340 78q114 77 152 233q32 165 32 447z" />
    <glyph glyph-name="r" unicode="r" horiz-adv-x="1610" 
d="M1593 1393q0 -86 -4 -115h-278q4 29 4 143q0 174 -78 234q-77 65 -258 65q-447 0 -447 -446v-1270h-290v1909h282l-12 -221q157 266 524 266q289 0 422 -139q135 -135 135 -426z" />
    <glyph glyph-name="s" unicode="s" horiz-adv-x="1954" 
d="M1790 561q0 -250 -70 -373q-74 -124 -241 -172q-170 -49 -484 -49q-242 0 -393 25q-150 24 -246 90q-94 69 -135 192q-41 120 -41 332h275q0 -170 49 -262q43 -87 155 -119t320 -32q228 0 332 28q111 26 151 103q41 69 41 225q0 168 -102 229q-100 68 -385 74
q-254 6 -430 49q-179 38 -295 148q-111 109 -111 323q0 235 70 352q61 123 225 172q168 50 463 50q268 0 426 -33q175 -31 283 -131q106 -108 106 -295q0 -7 -2 -29t-2 -41h-291q0 165 -94 234q-93 69 -401 69q-219 0 -324 -24q-102 -19 -139 -82q-33 -58 -33 -184
q0 -102 20 -164q27 -64 74 -90q66 -30 148 -41q46 -7 311 -29q260 -16 442 -53q151 -38 238 -148q90 -109 90 -344z" />
    <glyph glyph-name="t" unicode="t" horiz-adv-x="1417" 
d="M1376 676q0 -295 -37 -434q-36 -143 -151 -209q-118 -62 -357 -62q-209 0 -335 49q-122 52 -168 164q-54 114 -54 324v1175h-249v226h249v463h291v-463h738v-226h-738v-1175q0 -110 21 -176q16 -61 78 -94q70 -29 172 -29q121 0 172 29q60 27 77 90q21 51 21 180v168h270
z" />
    <glyph glyph-name="u" unicode="u" horiz-adv-x="2077" 
d="M1831 0h-266v254q-105 -163 -262 -229q-169 -54 -394 -54q-223 0 -377 70q-140 70 -217 221q-63 136 -69 377v1274h291v-1274q0 -176 36 -262q39 -96 127 -131q92 -37 271 -37q216 0 348 53q124 56 172 180q49 122 49 344v1127h291v-1913z" />
    <glyph glyph-name="v" unicode="v" horiz-adv-x="1737" 
d="M1712 1913l-639 -1913h-401l-639 1913h311l524 -1696l533 1696h311z" />
    <glyph glyph-name="w" unicode="w" horiz-adv-x="2781" 
d="M2757 1913l-537 -1913h-414l-413 1708l-414 -1708h-422l-520 1913h295l438 -1720l422 1720h410l417 -1720l439 1720h299z" />
    <glyph glyph-name="x" unicode="x" horiz-adv-x="1737" 
d="M1716 0h-348l-496 770l-495 -770h-348l684 995l-611 918h336l434 -701l435 701h335l-610 -918z" />
    <glyph glyph-name="y" unicode="y" horiz-adv-x="1651" 
d="M1634 1913l-540 -2024q-87 -345 -226 -548q-136 -205 -426 -205q-53 0 -135 20v234q67 -13 107 -13q104 0 171.5 61.5t110.5 155.5q49 111 70 213q13 59 23.5 101.5t21.5 91.5h-102l-693 1913h291l598 -1704l434 1704h295z" />
    <glyph glyph-name="z" unicode="z" horiz-adv-x="1651" 
d="M1561 0h-1475v266l1139 1422h-1045v225h1381v-266l-1143 -1409h1143v-238z" />
    <glyph glyph-name="braceleft" unicode="{" horiz-adv-x="2048" 
d="M1499 -766q-218 0 -319 21q-126 18 -213 81q-88 67 -127 181q-41 134 -41 327v656q0 157 -49 258q-50 92 -189 135v242q238 67 238 376v717q0 222 73 344q85 129 218 168q140 45 352 45q45 0 57 -4v-278q-140 -6 -229 -37q-81 -38 -123 -115q-37 -78 -37 -229v-656
q0 -182 -45 -282q-42 -101 -180 -176q127 -74 176 -189.5t49 -286.5v-634q0 -154 37 -238q30 -84 119 -123q82 -37 233 -37v-266z" />
    <glyph glyph-name="bar" unicode="|" horiz-adv-x="2048" 
d="M1184 -680h-312v3412h312v-3412z" />
    <glyph glyph-name="braceright" unicode="}" horiz-adv-x="2048" 
d="M1491 885q-132 -37 -188 -131q-50 -94 -50 -246v-717q0 -319 -155 -438q-157 -119 -488 -119q-41 0 -57 4v279q215 6 299 86q90 78 90 295v655q0 188 45 283q45 108 176 176q-126 72 -176 184q-45 121 -45 291v635q0 153 -37 237q-38 85 -119 119q-74 35 -233 41v266
q267 0 414 -37q137 -29 213 -168q73 -128 73 -405v-655q0 -162 50 -254q47 -96 188 -140v-241z" />
    <glyph glyph-name="asciitilde" unicode="~" horiz-adv-x="2048" 
d="M2003 1536q-95 -198 -238 -328.5t-327 -130.5q-91 0 -193 33q-75 29 -221 107q-103 54 -221 110q-93 37 -189 49q-143 0 -229 -82q-95 -82 -172 -225l-172 135q208 459 557 459q112 0 205 -41q108 -41 233 -111q133 -73 230 -110q90 -37 196 -37q119 0 205 86
q83 77 164 221z" />
    <glyph glyph-name="nonbreakingspace" unicode="&#xa0;" horiz-adv-x="2048" 
 />
    <glyph glyph-name="exclamdown" unicode="&#xa1;" horiz-adv-x="983" 
d="M635 2359h-299v373h299v-373zM655 0h-336l33 1978h262z" />
    <glyph glyph-name="cent" unicode="&#xa2;" 
d="M2040 995q0 -258 -66 -413q-70 -161 -221 -230q-152 -73 -422 -73v-291h-233v291q-307 6 -475 131q-158 121 -201 323q-49 195 -49 533q0 281 53 512q56 211 217 336q161 122 455 122v267h233v-267q355 -6 512 -151q160 -141 160 -492h-279q-6 164 -32 250
q-25 86 -107 123q-83 39 -254 45v-1503q183 6 279 57q86 47 123 144q28 91 28 286h279zM1098 512v1503q-189 -12 -287 -90q-86 -74 -111 -213q-17 -101 -24 -442q0 -332 33 -488q38 -156 114 -196q81 -50 275 -74z" />
    <glyph glyph-name="sterling" unicode="&#xa3;" horiz-adv-x="1307" 
d="M1135 -29q0 -182 -58 -278q-56 -94 -225 -94h-41q-16 4 -41 4v151q100 6 143 49q37 37 37 148q0 37 -4 49h-135v373h324v-402zM561 -29q0 -184 -57 -278q-56 -94 -225 -94h-41q-17 4 -41 4v151q98 6 143 49q37 37 37 148q0 37 -4 49h-135v373h323v-402z" />
    <glyph glyph-name="currency" unicode="&#xa4;" horiz-adv-x="2060" 
d="M2060 2732l-1855 -2732h-205l1843 2732h217z" />
    <glyph glyph-name="yen" unicode="&#xa5;" 
d="M2372 2732l-533 -868h373v-254h-529l-249 -406h778v-254h-815v-950h-307v950h-791v254h754l-242 406h-512v254h360l-520 868h357l757 -1278l754 1278h365z" />
    <glyph glyph-name="brokenbar" unicode="&#xa6;" 
d="M2220 3027l-41 -234q-82 9 -209 9q-184 0 -250 -66q-70 -70 -98 -242l-78 -446h504l-41 -233h-504l-319 -1799q-45 -241 -107 -348q-61 -116 -192 -172q-122 -49 -365 -49q-137 0 -229 16l41 234q125 -16 209 -16q178 0 250 65q66 66 98 246l323 1823h-372l41 233h372
l74 422q45 226 115 344q62 113 192 172q128 49 348 49q136 0 238 -8z" />
    <glyph glyph-name="section" unicode="&#xa7;" 
d="M2204 -78q0 -227 -45 -348q-36 -128 -148 -213q-116 -82 -278 -111q-184 -32 -463 -32q-255 0 -447 20q-157 18 -278 94q-113 83 -172 230q-54 160 -54 413h279v-114q0 -168 57 -250q59 -78 197 -103q129 -24 418 -24q265 0 389 33q142 36 205 123q61 79 61 233
q-6 185 -33 242q-22 73 -98 110q-77 43 -238 82l-839 221q-185 53 -262 119q-83 64 -115 176q-33 116 -33 295q0 210 66 324q65 112 245 155q-119 79 -167 209q-41 134 -41 303q0 216 45 349q41 127 143 192q92 68 254 86q150 25 418 25q356 0 524 -41q176 -37 262 -193
q86 -151 86 -491h-270q0 181 -21 258q-24 91 -86 135q-52 41 -172 61q-95 17 -323 17q-218 0 -320 -17q-112 -12 -172 -49q-51 -43 -73 -106q-17 -59 -17 -193q0 -129 17 -188q20 -75 57 -107q30 -30 78 -53q5 -1 217 -65l610 -185q222 -61 328 -110q104 -59 151 -160
q54 -108 54 -320q0 -183 -58 -299q-64 -121 -209 -184q171 -73 221 -201q50 -124 50 -348zM1942 983q0 136 -82 193q-93 58 -254 106l-590 172q-115 45 -201 45q-237 0 -237 -356q0 -129 24 -197q32 -68 90 -102q66 -34 185 -70l618 -172q145 -37 193 -37q254 0 254 418z
" />
    <glyph glyph-name="dieresis" unicode="&#xa8;" horiz-adv-x="2048" 
d="M1548 2105h-323v271h323v-271zM819 2105h-319v271h319v-271z" />
    <glyph glyph-name="copyright" unicode="&#xa9;" horiz-adv-x="3207" 
d="M3015 1364q0 -384 -193 -705q-184 -324 -512 -516q-322 -192 -704 -192q-387 0 -705 192q-324 184 -516 512t-192 709q0 379 192 709q190 325 516 516q315 188 705 188q282 0 540 -111q264 -112 455 -303q189 -189 303 -454q111 -258 111 -545zM2843 1364q0 335 -164 623
q-169 292 -451 462q-285 168 -622 168q-331 0 -623 -168q-287 -174 -451 -458q-167 -293 -167 -627q0 -250 94 -479q97 -227 270 -406q178 -178 401 -274q228 -99 476 -99q335 0 618 173q281 166 455 462q164 288 164 623zM2359 1212q-11 -187 -114 -356q-94 -145 -267 -242
q-164 -82 -364 -82q-231 0 -410 111q-186 116 -274 299q-99 190 -99 418q0 229 99 426q91 196 270 307q181 115 418 115q175 0 332 -66q160 -71 262 -196q103 -129 123 -304h-168q-46 195 -197 287q-153 99 -356 99q-179 0 -311 -91q-132 -94 -193 -245q-70 -160 -70 -332
q0 -177 70 -324q62 -147 197 -233q133 -90 307 -90q234 0 393 135q154 129 184 364h168z" />
    <glyph glyph-name="ordfeminine" unicode="&#xaa;" 
d="M1769 1573h-192l8 94q-84 -77 -164 -94q-93 -21 -225 -21q-160 0 -262 29q-102 23 -164 111q-57 82 -57 233q0 213 123 287q118 69 356 69q141 0 217 -16q85 -13 152 -74v103q0 141 -25 205q-23 59 -90 77q-73 21 -217 21q-139 0 -201 -29q-70 -25 -70 -135q0 -33 5 -45
h-205q0 20 -4 41q0 144 65 209q72 72 168 90q132 16 254 16q190 0 295 -24q107 -25 172 -115q61 -85 61 -274v-758zM1909 1151h-1307v160h1307v-160zM1569 1917q0 139 -78 176q-73 37 -242 37h-53q-135 0 -184 -16q-59 -21 -74 -58q-9 -24 -16 -110q0 -107 32 -160
q31 -49 90 -62q55 -12 185 -12q158 0 250 37q90 39 90 168z" />
    <glyph glyph-name="guillemotleft" unicode="&#xab;" horiz-adv-x="1831" 
d="M1626 131l-201 -131l-548 1053l491 1040l209 -127l-430 -913zM954 131l-200 -131l-549 1053l491 1040l209 -127l-430 -913z" />
    <glyph glyph-name="logicalnot" unicode="&#xac;" horiz-adv-x="2048" 
d="M1909 0h-307v856h-1467v279h1774v-1135z" />
    <glyph glyph-name="registered" unicode="&#xae;" horiz-adv-x="3207" 
d="M3015 1364q0 -384 -193 -705q-184 -324 -512 -516q-322 -192 -704 -192q-387 0 -705 192q-324 184 -516 512t-192 709q0 379 192 709q190 325 516 516q315 188 705 188q282 0 540 -111q264 -112 455 -303q189 -189 303 -454q111 -258 111 -545zM2843 1364q0 335 -164 623
q-169 292 -451 462q-285 168 -622 168q-331 0 -623 -168q-287 -174 -451 -458q-167 -293 -167 -627q0 -250 94 -479q97 -227 270 -406q178 -178 401 -274q228 -99 476 -99q335 0 618 173q281 166 455 462q164 288 164 623zM2281 1724q0 -136 -12 -217q-12 -77 -74 -139
q-63 -57 -196 -82q262 -18 262 -319v-422h-184v381q0 159 -74 221q-71 65 -242 65h-565v-667h-188v1663h790q260 0 373 -107q110 -109 110 -377zM2097 1679q0 207 -53 283q-47 82 -242 82h-606v-676h541q200 0 278 66q82 63 82 245z" />
    <glyph glyph-name="degree" unicode="&#xb0;" horiz-adv-x="2048" 
d="M1602 2134q0 -160 -78 -287q-80 -133 -213 -213q-132 -78 -287 -78q-151 0 -283 78q-131 75 -213 205q-82 139 -82 283q0 163 74 299q78 133 209 217q127 78 295 78q159 0 291 -78q131 -80 209 -217q78 -132 78 -287zM1450 2134q0 120 -57 217q-56 100 -156 156
q-98 61 -213 61t-213 -61q-97 -54 -156 -160q-57 -102 -57 -217q0 -172 127 -299q121 -121 295 -127q176 0 303 127t127 303z" />
    <glyph glyph-name="plusminus" unicode="&#xb1;" horiz-adv-x="2048" 
d="M1954 1360h-844v-778h-176v778h-840v172h840v786h176v-786h844v-172zM1954 229h-1860v172h1860v-172z" />
    <glyph glyph-name="twosuperior" unicode="&#xb2;" 
d="M2040 1741h-631v-2478h-299v2478h-635v237h635v754h299v-754h631v-237z" />
    <glyph glyph-name="threesuperior" unicode="&#xb3;" 
d="M2040 164h-631v-901h-299v901h-635v237h635v1233h-635v238h635v860h299v-860h631v-238h-631v-1233h631v-237z" />
    <glyph glyph-name="mu" unicode="&#xb5;" horiz-adv-x="2191" 
d="M1933 0h-295v381q-77 -199 -221 -311q-150 -119 -344 -119q-335 0 -524 299v-930h-295v2638h295v-1106q0 -170 24 -287q25 -116 111 -209q161 -172 397 -172q176 0 303 103q129 108 189 266q65 160 65 336v1069h295v-1958z" />
    <glyph glyph-name="paragraph" unicode="&#xb6;" 
d="M2281 -766h-274v3240h-324v-3240h-274v1835h-434q-317 0 -512 49q-192 52 -283 148q-87 87 -127 237q-28 164 -28 377q0 263 32 426q36 156 127 254q95 88 283 131q182 37 508 37h1306v-3494zM1409 1327v1147h-618q-214 0 -304 -45q-100 -45 -135 -160q-37 -120 -37 -364
q0 -223 54 -357q56 -124 192 -172q134 -49 389 -49h459z" />
    <glyph glyph-name="periodcentered" unicode="&#xb7;" 
d="M1417 811h-323v373h323v-373z" />
    <glyph glyph-name="cedilla" unicode="&#xb8;" horiz-adv-x="827" 
d="M582 -29q0 -192 -58 -278q-56 -94 -225 -94h-41q-16 4 -41 4v151q102 6 139 49q41 35 41 148q0 37 -4 49h-135v373h324v-402z" />
    <glyph glyph-name="onesuperior" unicode="&#xb9;" horiz-adv-x="4387" 
d="M3994 2081q0 -226 -33 -328q-32 -112 -139 -172q-108 -57 -340 -57q-206 0 -328 49q-125 50 -180 160q-58 121 -58 323v103q0 238 41 352q41 115 160 172q110 49 340 49q226 0 336 -49q117 -56 160 -176q41 -114 41 -361v-65zM4108 1122h-1306v160h1306v-160zM2593 0
h-500l-1536 2470v-2470h-299v2732h500l1536 -2494v2494h299v-2732zM3789 2056v152q0 193 -45 278q-47 82 -230 82h-90q-179 0 -229 -45q-74 -62 -74 -307v-57v-115q0 -241 70 -311q51 -45 172 -45q145 0 225 12q78 12 127 49q39 34 57 106q17 60 17 201z" />
    <glyph glyph-name="ordmasculine" unicode="&#xba;" 
d="M1794 2109q0 -231 -33 -327q-30 -112 -139 -172q-116 -58 -340 -58q-204 0 -328 50q-114 39 -180 163q-57 114 -57 320v102q0 232 45 353q34 114 156 172q112 49 339 49q222 0 340 -49q113 -57 156 -177q41 -109 41 -360v-66zM1909 1151h-1307v160h1307v-160zM1589 2085
v151q0 200 -49 279q-45 82 -225 82h-90q-171 0 -230 -45q-67 -56 -73 -307v-58v-114q0 -243 69 -312q53 -45 172 -45q194 0 279 25q88 25 119 98q28 69 28 246z" />
    <glyph glyph-name="guillemotright" unicode="&#xbb;" horiz-adv-x="1831" 
d="M1626 1053l-553 -1053l-196 131l475 922l-430 913l213 127zM954 1053l-553 -1053l-196 131l475 922l-430 913l213 127z" />
    <glyph glyph-name="onehalf" unicode="&#xbd;" horiz-adv-x="2048" 
d="M1794 745l-119 -118l-651 647l-651 -651l-123 122l651 652l-647 647l119 123l647 -651l651 651l123 -123l-651 -651z" />
    <glyph glyph-name="threequarters" unicode="&#xbe;" horiz-adv-x="2445" 
d="M2200 0h-324v373h324v-373zM1384 0h-323v373h323v-373zM569 0h-323v373h323v-373z" />
    <glyph glyph-name="questiondown" unicode="&#xbf;" horiz-adv-x="2126" 
d="M1352 1540h-324v373h324v-373zM1909 37q0 -284 -29 -430q-23 -157 -111 -262q-85 -98 -245 -148q-172 -45 -434 -45q-241 0 -398 25q-159 31 -266 102q-108 72 -164.5 225t-56.5 394q0 303 74 491q80 186 315 270q29 11 76.5 26t91.5 32q79 32 135 65q60 37 98 95
q37 61 37 151v49q4 21 4 45h299q0 -211 -28 -315q-25 -109 -115 -189q-101 -80 -279 -143q-210 -81 -270 -123q-76 -43 -115 -139q-36 -91 -36 -283q0 -178 24 -282q23 -99 82 -152q59 -48 160 -65q94 -13 291 -13q195 0 323 25q120 25 184 119q66 88 66 291v184h287z" />
    <glyph glyph-name="Agrave" unicode="&#xc0;" horiz-adv-x="2626" 
d="M2548 0h-324l-213 561h-1380l-209 -561h-328l996 2732h438zM1921 827l-606 1680l-602 -1680h1208z" />
    <glyph glyph-name="Agrave" unicode="&#x410;" horiz-adv-x="2626" 
d="M2548 0h-324l-213 561h-1380l-209 -561h-328l996 2732h438zM1921 827l-606 1680l-602 -1680h1208z" />
    <glyph glyph-name="Aacute" unicode="&#xc1;" horiz-adv-x="2523" 
d="M2298 786q0 -257 -70 -442q-67 -171 -229 -258q-167 -86 -434 -86h-1303v2732h1852v-270h-1549v-803h815q308 0 475 -41q175 -43 275 -135q94 -96 131 -258q37 -164 37 -439zM1987 844q0 189 -37 303q-45 116 -123 164q-75 52 -205 65q-107 17 -332 17h-725v-1123h971
q195 0 295 62q96 61 127 180q29 113 29 332z" />
    <glyph glyph-name="Aacute" unicode="&#x411;" horiz-adv-x="2523" 
d="M2298 786q0 -257 -70 -442q-67 -171 -229 -258q-167 -86 -434 -86h-1303v2732h1852v-270h-1549v-803h815q308 0 475 -41q175 -43 275 -135q94 -96 131 -258q37 -164 37 -439zM1987 844q0 189 -37 303q-45 116 -123 164q-75 52 -205 65q-107 17 -332 17h-725v-1123h971
q195 0 295 62q96 61 127 180q29 113 29 332z" />
    <glyph glyph-name="Acircumflex" unicode="&#xc2;" horiz-adv-x="2523" 
d="M2347 786q0 -259 -61 -430q-61 -169 -218 -266q-161 -90 -417 -90h-1389v2732h1311q255 0 401 -61q150 -60 226 -209q69 -152 69 -406q0 -170 -24 -287q-21 -120 -99 -196q-67 -85 -221 -139q184 -51 266 -127q93 -81 123 -205q33 -123 33 -316zM1962 2032q0 170 -37 262
q-35 88 -127 131q-94 37 -258 37h-975v-922h865q213 0 323 41q111 43 160 148q49 102 49 303zM2040 770q0 225 -45 320q-42 99 -148 143q-98 41 -315 41h-967v-1004h840q270 0 389 29q129 24 184 131q62 112 62 340z" />
    <glyph glyph-name="Acircumflex" unicode="&#x412;" horiz-adv-x="2523" 
d="M2347 786q0 -259 -61 -430q-61 -169 -218 -266q-161 -90 -417 -90h-1389v2732h1311q255 0 401 -61q150 -60 226 -209q69 -152 69 -406q0 -170 -24 -287q-21 -120 -99 -196q-67 -85 -221 -139q184 -51 266 -127q93 -81 123 -205q33 -123 33 -316zM1962 2032q0 170 -37 262
q-35 88 -127 131q-94 37 -258 37h-975v-922h865q213 0 323 41q111 43 160 148q49 102 49 303zM2040 770q0 225 -45 320q-42 99 -148 143q-98 41 -315 41h-967v-1004h840q270 0 389 29q129 24 184 131q62 112 62 340z" />
    <glyph glyph-name="Atilde" unicode="&#xc3;" horiz-adv-x="1987" 
d="M1950 2458h-1385v-2458h-307v2732h1692v-274z" />
    <glyph glyph-name="Atilde" unicode="&#x413;" horiz-adv-x="1987" 
d="M1950 2458h-1385v-2458h-307v2732h1692v-274z" />
    <glyph glyph-name="Adieresis" unicode="&#xc4;" horiz-adv-x="2757" 
d="M2662 -442h-274v290q0 152 -115 152h-1732q-62 -6 -82 -41q-21 -31 -21 -111v-290h-274v708h155q114 78 168 328q54 239 54 582v1560h1925v-2470h196v-708zM2163 266v2200h-1319v-1385q0 -680 -197 -815h1516z" />
    <glyph glyph-name="Adieresis" unicode="&#x414;" horiz-adv-x="2757" 
d="M2662 -442h-274v290q0 152 -115 152h-1732q-62 -6 -82 -41q-21 -31 -21 -111v-290h-274v708h155q114 78 168 328q54 239 54 582v1560h1925v-2470h196v-708zM2163 266v2200h-1319v-1385q0 -680 -197 -815h1516z" />
    <glyph glyph-name="Aring" unicode="&#xc5;" horiz-adv-x="2167" 
d="M2011 2462h-1458v-930h1389v-266h-1389v-996h1450v-270h-1753v2732h1761v-270z" />
    <glyph glyph-name="Aring" unicode="&#x415;" horiz-adv-x="2167" 
d="M2011 2462h-1458v-930h1389v-266h-1389v-996h1450v-270h-1753v2732h1761v-270z" />
    <glyph glyph-name="AE" unicode="&#xc6;" horiz-adv-x="3965" 
d="M3903 0h-413l-1249 1270h-99v-1270h-307v1270h-98l-1250 -1270h-413l1396 1409l-1249 1323h402l1114 -1192h98v1192h307v-1192h99l1114 1192h401l-1249 -1323z" />
    <glyph glyph-name="AE" unicode="&#x416;" horiz-adv-x="3965" 
d="M3903 0h-413l-1249 1270h-99v-1270h-307v1270h-98l-1250 -1270h-413l1396 1409l-1249 1323h402l1114 -1192h98v1192h307v-1192h99l1114 1192h401l-1249 -1323z" />
    <glyph glyph-name="Ccedilla" unicode="&#xc7;" horiz-adv-x="2486" 
d="M2335 725q0 -343 -94 -504q-90 -155 -304 -205q-230 -45 -659 -45q-449 0 -672 66q-226 67 -311 225q-80 162 -86 463q0 127 4 164h291v-160q0 -170 24 -262q34 -99 107 -143q80 -54 221 -66q111 -13 422 -20q340 0 487 24q152 32 205 131q58 103 58 332q0 218 -54 332
q-56 117 -176 160q-110 45 -332 45h-798v266h778q228 0 344 33q105 34 147 139q41 113 41 332t-49.5 311t-183.5 123q-141 24 -467 24q-254 0 -389.5 -12t-204.5 -53q-77 -36 -102 -119q-29 -68 -29 -217v-98q-4 -41 -4 -99h-291q0 283 37 447q36 160 135 254
q109 90 303 127q202 37 545 37q420 0 618 -41q209 -43 299 -189q91 -144 91 -459q0 -225 -37 -364q-38 -132 -135 -205q-105 -72 -283 -94q287 -37 397 -197q107 -147 107 -483z" />
    <glyph glyph-name="Ccedilla" unicode="&#x417;" horiz-adv-x="2486" 
d="M2335 725q0 -343 -94 -504q-90 -155 -304 -205q-230 -45 -659 -45q-449 0 -672 66q-226 67 -311 225q-80 162 -86 463q0 127 4 164h291v-160q0 -170 24 -262q34 -99 107 -143q80 -54 221 -66q111 -13 422 -20q340 0 487 24q152 32 205 131q58 103 58 332q0 218 -54 332
q-56 117 -176 160q-110 45 -332 45h-798v266h778q228 0 344 33q105 34 147 139q41 113 41 332t-49.5 311t-183.5 123q-141 24 -467 24q-254 0 -389.5 -12t-204.5 -53q-77 -36 -102 -119q-29 -68 -29 -217v-98q-4 -41 -4 -99h-291q0 283 37 447q36 160 135 254
q109 90 303 127q202 37 545 37q420 0 618 -41q209 -43 299 -189q91 -144 91 -459q0 -225 -37 -364q-38 -132 -135 -205q-105 -72 -283 -94q287 -37 397 -197q107 -147 107 -483z" />
    <glyph glyph-name="Egrave" unicode="&#xc8;" horiz-adv-x="2859" 
d="M2593 0h-303v2466l-1536 -2466h-504v2728h303v-2495l1536 2495h504v-2728z" />
    <glyph glyph-name="Egrave" unicode="&#x418;" horiz-adv-x="2859" 
d="M2593 0h-303v2466l-1536 -2466h-504v2728h303v-2495l1536 2495h504v-2728z" />
    <glyph glyph-name="Eacute" unicode="&#xc9;" horiz-adv-x="2851" 
d="M1978 3351q-24 -156 -106 -279.5t-217 -200.5q-122 -67 -287 -73q-236 0 -401 159q-166 160 -213 394h196q32 -149 148 -246q117 -99 270 -99q149 0 266 99q121 95 152 246h192zM2585 0h-304v2470l-1536 -2470h-503v2732h303v-2494l1536 2494h504v-2732z" />
    <glyph glyph-name="Eacute" unicode="&#x419;" horiz-adv-x="2851" 
d="M1978 3351q-24 -156 -106 -279.5t-217 -200.5q-122 -67 -287 -73q-236 0 -401 159q-166 160 -213 394h196q32 -149 148 -246q117 -99 270 -99q149 0 266 99q121 95 152 246h192zM2585 0h-304v2470l-1536 -2470h-503v2732h303v-2494l1536 2494h504v-2732z" />
    <glyph glyph-name="Ecircumflex" unicode="&#xca;" horiz-adv-x="2548" 
d="M2507 0h-418l-1253 1270h-267v-1270h-303v2736h303v-1196h271l1114 1192h405l-1249 -1323z" />
    <glyph glyph-name="Ecircumflex" unicode="&#x41a;" horiz-adv-x="2548" 
d="M2507 0h-418l-1253 1270h-267v-1270h-303v2736h303v-1196h271l1114 1192h405l-1249 -1323z" />
    <glyph glyph-name="Edieresis" unicode="&#xcb;" horiz-adv-x="2814" 
d="M2548 0h-303v2466h-1319v-1692q0 -316 -70 -475q-62 -161 -242 -229q-177 -70 -512 -70v266q204 0 312 41q104 38 159 156q50 118 50 356v1917h1925v-2736z" />
    <glyph glyph-name="Edieresis" unicode="&#x41b;" horiz-adv-x="2814" 
d="M2548 0h-303v2466h-1319v-1692q0 -316 -70 -475q-62 -161 -242 -229q-177 -70 -512 -70v266q204 0 312 41q104 38 159 156q50 118 50 356v1917h1925v-2736z" />
    <glyph glyph-name="Igrave" unicode="&#xcc;" horiz-adv-x="3514" 
d="M3248 0h-303v2511l-1032 -2511h-311l-1041 2486v-2486h-303v2736h533l962 -2343l967 2343h528v-2736z" />
    <glyph glyph-name="Igrave" unicode="&#x41c;" horiz-adv-x="3514" 
d="M3248 0h-303v2511l-1032 -2511h-311l-1041 2486v-2486h-303v2736h533l962 -2343l967 2343h528v-2736z" />
    <glyph glyph-name="Iacute" unicode="&#xcd;" horiz-adv-x="2732" 
d="M2466 0h-303v1253h-1598v-1253h-303v2736h303v-1212h1598v1212h303v-2736z" />
    <glyph glyph-name="Iacute" unicode="&#x41d;" horiz-adv-x="2732" 
d="M2466 0h-303v1253h-1598v-1253h-303v2736h303v-1212h1598v1212h303v-2736z" />
    <glyph glyph-name="Icircumflex" unicode="&#xce;" horiz-adv-x="2810" 
d="M2556 1360q0 -515 -41 -758q-44 -268 -156 -397q-111 -134 -331 -185q-238 -45 -623 -45t-623 45q-215 50 -331 185q-112 135 -156 401q-41 249 -41 758q7 554 41 758q43 259 156 397q110 135 331 184q230 45 623 45q400 0 623 -45q213 -48 331 -184q112 -129 156 -397
q41 -249 41 -762zM2249 1360q0 440 -25 639q-17 197 -98 311q-86 109 -238 139q-140 33 -483 33q-344 0 -479 -33q-158 -30 -238 -135q-80 -104 -98 -311q-25 -199 -25 -639q6 -420 25 -635q24 -211 98 -315q84 -109 238 -140q163 -32 479 -32q353 7 483 32q160 31 238 140
q81 114 98 307q25 204 25 639z" />
    <glyph glyph-name="Icircumflex" unicode="&#x41e;" horiz-adv-x="2810" 
d="M2556 1360q0 -515 -41 -758q-44 -268 -156 -397q-111 -134 -331 -185q-238 -45 -623 -45t-623 45q-215 50 -331 185q-112 135 -156 401q-41 249 -41 758q7 554 41 758q43 259 156 397q110 135 331 184q230 45 623 45q400 0 623 -45q213 -48 331 -184q112 -129 156 -397
q41 -249 41 -762zM2249 1360q0 440 -25 639q-17 197 -98 311q-86 109 -238 139q-140 33 -483 33q-344 0 -479 -33q-158 -30 -238 -135q-80 -104 -98 -311q-25 -199 -25 -639q6 -420 25 -635q24 -211 98 -315q84 -109 238 -140q163 -32 479 -32q353 7 483 32q160 31 238 140
q81 114 98 307q25 204 25 639z" />
    <glyph glyph-name="Idieresis" unicode="&#xcf;" horiz-adv-x="2732" 
d="M2466 0h-303v2466h-1598v-2466h-303v2736h2204v-2736z" />
    <glyph glyph-name="Idieresis" unicode="&#x41f;" horiz-adv-x="2732" 
d="M2466 0h-303v2466h-1598v-2466h-303v2736h2204v-2736z" />
    <glyph glyph-name="Eth" unicode="&#xd0;" horiz-adv-x="2429" 
d="M2286 1946q0 -272 -41 -435q-44 -168 -144 -262q-102 -96 -278 -139q-189 -41 -455 -41h-815v-1069h-299v2732h1302q268 0 435 -86q154 -83 229 -258q66 -175 66 -442zM1978 1888q0 192 -28 336q-32 120 -131 176q-94 62 -299 62h-963l-4 -1127h733q259 0 414 33
q139 31 209 152q69 118 69 368z" />
    <glyph glyph-name="Eth" unicode="&#x420;" horiz-adv-x="2429" 
d="M2286 1946q0 -272 -41 -435q-44 -168 -144 -262q-102 -96 -278 -139q-189 -41 -455 -41h-815v-1069h-299v2732h1302q268 0 435 -86q154 -83 229 -258q66 -175 66 -442zM1978 1888q0 192 -28 336q-32 120 -131 176q-94 62 -299 62h-963l-4 -1127h733q259 0 414 33
q139 31 209 152q69 118 69 368z" />
    <glyph glyph-name="Ntilde" unicode="&#xd1;" horiz-adv-x="2421" 
d="M2327 913q0 -319 -37 -495q-38 -180 -144 -275q-112 -99 -311 -135q-214 -37 -590 -37q-404 0 -594 45q-201 42 -311.5 177t-146.5 401q-31 259 -37 762q0 500 37 766q36 262 147 397q108 139 307 180q184 45 598 45q374 0 565 -41q203 -42 299 -139q102 -100 132 -254
q35 -150 49 -450h-295q-27 277 -41 352q-11 81 -78 155q-61 61 -205 87q-157 20 -426 20q-311 0 -463 -37q-149 -36 -217 -147q-65 -93 -86 -299q-16 -254 -16 -635q0 -464 16 -639q20 -200 86 -299q64 -105 217 -144q148 -36 463 -36q279 0 451 20q147 18 217 82
q75 62 98 188q21 143 21 385h295z" />
    <glyph glyph-name="Ntilde" unicode="&#x421;" horiz-adv-x="2421" 
d="M2327 913q0 -319 -37 -495q-38 -180 -144 -275q-112 -99 -311 -135q-214 -37 -590 -37q-404 0 -594 45q-201 42 -311.5 177t-146.5 401q-31 259 -37 762q0 500 37 766q36 262 147 397q108 139 307 180q184 45 598 45q374 0 565 -41q203 -42 299 -139q102 -100 132 -254
q35 -150 49 -450h-295q-27 277 -41 352q-11 81 -78 155q-61 61 -205 87q-157 20 -426 20q-311 0 -463 -37q-149 -36 -217 -147q-65 -93 -86 -299q-16 -254 -16 -635q0 -464 16 -639q20 -200 86 -299q64 -105 217 -144q148 -36 463 -36q279 0 451 20q147 18 217 82
q75 62 98 188q21 143 21 385h295z" />
    <glyph glyph-name="Ograve" unicode="&#xd2;" horiz-adv-x="2191" 
d="M2126 2458h-881v-2458h-307v2458h-893v274h2081v-274z" />
    <glyph glyph-name="Ograve" unicode="&#x422;" horiz-adv-x="2191" 
d="M2126 2458h-881v-2458h-307v2458h-893v274h2081v-274z" />
    <glyph glyph-name="Oacute" unicode="&#xd3;" horiz-adv-x="2400" 
d="M2335 2736l-967 -2310q-179 -426 -512 -426h-283v266h181q140 0 204 58q58 40 119 196l-1011 2216h331l840 -1896l774 1896h324z" />
    <glyph glyph-name="Oacute" unicode="&#x423;" horiz-adv-x="2400" 
d="M2335 2736l-967 -2310q-179 -426 -512 -426h-283v266h181q140 0 204 58q58 40 119 196l-1011 2216h331l840 -1896l774 1896h324z" />
    <glyph glyph-name="Ocircumflex" unicode="&#xd4;" horiz-adv-x="3178" 
d="M3002 1212q0 -250 -114 -430q-122 -185 -320 -274q-199 -94 -442 -94h-389v-414h-303v414h-390q-255 6 -446 94q-201 100 -315 274q-115 181 -115 430v377q6 215 74 357q68 154 196 258q141 106 291 151q165 49 361 49h344v328h303v-328h344q201 0 364 -49
q167 -56 287 -151q127 -103 201 -258q69 -151 69 -357v-377zM2699 1217v368q0 289 -176 422q-172 135 -467 135h-319v-1478h282q297 0 488 135q192 132 192 418zM1434 664v1478h-320q-294 0 -467 -135q-176 -133 -176 -422v-368q0 -190 94 -316q94 -124 242 -180
q163 -57 344 -57h283z" />
    <glyph glyph-name="Ocircumflex" unicode="&#x424;" horiz-adv-x="3178" 
d="M3002 1212q0 -250 -114 -430q-122 -185 -320 -274q-199 -94 -442 -94h-389v-414h-303v414h-390q-255 6 -446 94q-201 100 -315 274q-115 181 -115 430v377q6 215 74 357q68 154 196 258q141 106 291 151q165 49 361 49h344v328h303v-328h344q201 0 364 -49
q167 -56 287 -151q127 -103 201 -258q69 -151 69 -357v-377zM2699 1217v368q0 289 -176 422q-172 135 -467 135h-319v-1478h282q297 0 488 135q192 132 192 418zM1434 664v1478h-320q-294 0 -467 -135q-176 -133 -176 -422v-368q0 -190 94 -316q94 -124 242 -180
q163 -57 344 -57h283z" />
    <glyph glyph-name="Otilde" unicode="&#xd5;" horiz-adv-x="2499" 
d="M2482 0h-368l-848 1253l-848 -1253h-369l975 1413l-897 1319h365l774 -1167l774 1167h364l-897 -1319z" />
    <glyph glyph-name="Otilde" unicode="&#x425;" horiz-adv-x="2499" 
d="M2482 0h-368l-848 1253l-848 -1253h-369l975 1413l-897 1319h365l774 -1167l774 1167h364l-897 -1319z" />
    <glyph glyph-name="Odieresis" unicode="&#xd6;" horiz-adv-x="2748" 
d="M2666 -446h-278v290q0 156 -115 156h-2011v2736h303v-2466h1598v2466h303v-2466h200v-716z" />
    <glyph glyph-name="Odieresis" unicode="&#x426;" horiz-adv-x="2748" 
d="M2666 -446h-278v290q0 156 -115 156h-2011v2736h303v-2466h1598v2466h303v-2466h200v-716z" />
    <glyph glyph-name="multiply" unicode="&#xd7;" horiz-adv-x="2560" 
d="M2200 0h-304v1077q-231 -73 -716 -73q-309 6 -475 40q-175 44 -271 140q-97 91 -135 258q-37 157 -37 434v856h303v-913q0 -248 70 -369q72 -120 209 -152q150 -32 413 -32q389 0 639 69v1397h304v-2732z" />
    <glyph glyph-name="multiply" unicode="&#x427;" horiz-adv-x="2560" 
d="M2200 0h-304v1077q-231 -73 -716 -73q-309 6 -475 40q-175 44 -271 140q-97 91 -135 258q-37 157 -37 434v856h303v-913q0 -248 70 -369q72 -120 209 -152q150 -32 413 -32q389 0 639 69v1397h304v-2732z" />
    <glyph glyph-name="Oslash" unicode="&#xd8;" horiz-adv-x="4223" 
d="M3953 0h-3691v2736h303v-2466h1393v2466h303v-2466h1389v2466h303v-2736z" />
    <glyph glyph-name="Oslash" unicode="&#x428;" horiz-adv-x="4223" 
d="M3953 0h-3691v2736h303v-2466h1393v2466h303v-2466h1389v2466h303v-2736z" />
    <glyph glyph-name="Ugrave" unicode="&#xd9;" horiz-adv-x="4280" 
d="M4145 -446h-274v290q0 156 -115 156h-3498v2736h303v-2466h1393v2466h303v-2466h1388v2466h304v-2466h196v-716z" />
    <glyph glyph-name="Ugrave" unicode="&#x429;" horiz-adv-x="4280" 
d="M4145 -446h-274v290q0 156 -115 156h-3498v2736h303v-2466h1393v2466h303v-2466h1388v2466h304v-2466h196v-716z" />
    <glyph glyph-name="Uacute" unicode="&#xda;" horiz-adv-x="2626" 
d="M2441 786q0 -260 -65 -442q-75 -170 -230 -258q-160 -86 -434 -86h-1302v2466h-340v266h643v-1073h815q307 0 475 -41q171 -36 270 -135q96 -96 131 -258q37 -164 37 -439zM2134 844q0 198 -41 303q-39 115 -119 164q-74 52 -200 65q-107 17 -328 17h-733v-1123h962
q201 0 299 62q102 63 131 176t29 336z" />
    <glyph glyph-name="Uacute" unicode="&#x42a;" horiz-adv-x="2626" 
d="M2441 786q0 -260 -65 -442q-75 -170 -230 -258q-160 -86 -434 -86h-1302v2466h-340v266h643v-1073h815q307 0 475 -41q171 -36 270 -135q96 -96 131 -258q37 -164 37 -439zM2134 844q0 198 -41 303q-39 115 -119 164q-74 52 -200 65q-107 17 -328 17h-733v-1123h962
q201 0 299 62q102 63 131 176t29 336z" />
    <glyph glyph-name="Ucircumflex" unicode="&#xdb;" horiz-adv-x="3256" 
d="M2986 0h-303v2732h303v-2732zM2302 786q0 -278 -70 -442q-68 -169 -225 -258q-160 -86 -434 -86h-1303v2732h303v-1073h816q307 0 475 -41q162 -36 270 -135q94 -88 131 -258q37 -164 37 -439zM1995 844q0 248 -70 368q-66 119 -205 152q-136 29 -417 29h-730v-1123h963
q205 0 303 61.5t127 180.5q29 108 29 332z" />
    <glyph glyph-name="Ucircumflex" unicode="&#x42b;" horiz-adv-x="3256" 
d="M2986 0h-303v2732h303v-2732zM2302 786q0 -278 -70 -442q-68 -169 -225 -258q-160 -86 -434 -86h-1303v2732h303v-1073h816q307 0 475 -41q162 -36 270 -135q94 -88 131 -258q37 -164 37 -439zM1995 844q0 248 -70 368q-66 119 -205 152q-136 29 -417 29h-730v-1123h963
q205 0 303 61.5t127 180.5q29 108 29 332z" />
    <glyph glyph-name="Udieresis" unicode="&#xdc;" horiz-adv-x="2499" 
d="M2318 786q0 -260 -69 -442q-67 -171 -230 -258q-166 -86 -434 -86h-1302v2732h303v-1073h815q307 0 475 -41q178 -43 270 -135q99 -93 135 -258q37 -164 37 -439zM2007 844q0 248 -70 368q-76 121 -208 152q-138 29 -414 29h-729v-1123h970q203 0 295 62q98 61 127 180
q29 108 29 332z" />
    <glyph glyph-name="Udieresis" unicode="&#x42c;" horiz-adv-x="2499" 
d="M2318 786q0 -260 -69 -442q-67 -171 -230 -258q-166 -86 -434 -86h-1302v2732h303v-1073h815q307 0 475 -41q178 -43 270 -135q99 -93 135 -258q37 -164 37 -439zM2007 844q0 248 -70 368q-76 121 -208 152q-138 29 -414 29h-729v-1123h970q203 0 295 62q98 61 127 180
q29 108 29 332z" />
    <glyph glyph-name="Yacute" unicode="&#xdd;" horiz-adv-x="2486" 
d="M2331 1356q0 -491 -37 -762q-38 -264 -144 -401q-107 -133 -311 -177q-190 -45 -594 -45q-376 0 -586 37q-202 36 -315 135q-105 94 -143 275q-37 169 -37 495h295q0 -262 24 -385q19 -126 95 -188q69 -64 221 -82q163 -20 446 -20q296 6 438 24q146 32 213 123
q76 86 103 291q24 202 24 590h-1392v266h1392q0 341 -24 520q-34 192 -103 270q-74 93 -221 123q-135 29 -430 29q-264 0 -422 -20q-144 -26 -205 -87q-66 -74 -77 -147q-22 -97 -45 -360h-295q18 302 49 450q29 153 131 254q95 97 299 139q191 41 565 41q414 0 598 -45
q201 -42 307 -180q106 -128 144 -393q37 -271 37 -770z" />
    <glyph glyph-name="Yacute" unicode="&#x42d;" horiz-adv-x="2486" 
d="M2331 1356q0 -491 -37 -762q-38 -264 -144 -401q-107 -133 -311 -177q-190 -45 -594 -45q-376 0 -586 37q-202 36 -315 135q-105 94 -143 275q-37 169 -37 495h295q0 -262 24 -385q19 -126 95 -188q69 -64 221 -82q163 -20 446 -20q296 6 438 24q146 32 213 123
q76 86 103 291q24 202 24 590h-1392v266h1392q0 341 -24 520q-34 192 -103 270q-74 93 -221 123q-135 29 -430 29q-264 0 -422 -20q-144 -26 -205 -87q-66 -74 -77 -147q-22 -97 -45 -360h-295q18 302 49 450q29 153 131 254q95 97 299 139q191 41 565 41q414 0 598 -45
q201 -42 307 -180q106 -128 144 -393q37 -271 37 -770z" />
    <glyph glyph-name="Thorn" unicode="&#xde;" horiz-adv-x="3461" 
d="M3256 926q0 -321 -65 -504q-60 -185 -193 -287q-122 -92 -319 -131q-210 -33 -488 -33q-277 0 -487 33q-185 31 -324 131q-124 95 -192 287q-66 186 -66 504v340h-577v-1270h-303v2736h303v-1200h577v295q0 316 66 495q61 184 192 283q125 89 320 127q230 29 491 29
q317 0 492 -29q175 -28 315 -127q132 -94 193 -283q65 -170 65 -495v-901zM2949 926v901q0 265 -45 393q-37 134 -131 197q-75 54 -213 73q-118 13 -369 13q-252 0 -364 -17q-136 -13 -217 -78q-93 -54 -135 -196q-39 -125 -45 -385v-901q0 -200 32 -344q39 -135 119 -209
q82 -77 229 -115q163 -33 381 -33q307 0 467 62q163 66 230 213q61 146 61 426z" />
    <glyph glyph-name="Thorn" unicode="&#x42e;" horiz-adv-x="3461" 
d="M3256 926q0 -321 -65 -504q-60 -185 -193 -287q-122 -92 -319 -131q-210 -33 -488 -33q-277 0 -487 33q-185 31 -324 131q-124 95 -192 287q-66 186 -66 504v340h-577v-1270h-303v2736h303v-1200h577v295q0 316 66 495q61 184 192 283q125 89 320 127q230 29 491 29
q317 0 492 -29q175 -28 315 -127q132 -94 193 -283q65 -170 65 -495v-901zM2949 926v901q0 265 -45 393q-37 134 -131 197q-75 54 -213 73q-118 13 -369 13q-252 0 -364 -17q-136 -13 -217 -78q-93 -54 -135 -196q-39 -125 -45 -385v-901q0 -200 32 -344q39 -135 119 -209
q82 -77 229 -115q163 -33 381 -33q307 0 467 62q163 66 230 213q61 146 61 426z" />
    <glyph glyph-name="germandbls" unicode="&#xdf;" horiz-adv-x="2548" 
d="M2273 0h-303v1090h-934q-187 0 -295 -41q-109 -43 -163 -148q-54 -95 -54 -278v-623h-307v692q0 494 434 525q-199 41 -303 139q-95 84 -135 233q-33 148 -33 344q0 225 45 389q50 164 140 246q86 82 241 123q152 37 373 37h1294v-2728zM1970 1352v1106h-995
q-217 0 -320 -66q-103 -61 -135 -180q-28 -143 -28 -348q0 -204 61 -320q60 -109 184 -151q122 -41 344 -41h889z" />
    <glyph glyph-name="germandbls" unicode="&#x42f;" horiz-adv-x="2548" 
d="M2273 0h-303v1090h-934q-187 0 -295 -41q-109 -43 -163 -148q-54 -95 -54 -278v-623h-307v692q0 494 434 525q-199 41 -303 139q-95 84 -135 233q-33 148 -33 344q0 225 45 389q50 164 140 246q86 82 241 123q152 37 373 37h1294v-2728zM1970 1352v1106h-995
q-217 0 -320 -66q-103 -61 -135 -180q-28 -143 -28 -348q0 -204 61 -320q60 -109 184 -151q122 -41 344 -41h889z" />
    <glyph glyph-name="agrave" unicode="&#xe0;" horiz-adv-x="2077" 
d="M1835 0h-274l12 201q-75 -99 -160 -152q-65 -40 -184 -61q-114 -13 -299 -13q-269 0 -418 45q-157 43 -250 173q-86 136 -86 385q0 241 90 368q102 126 254 168q157 41 410 41q218 0 348 -20q117 -26 160 -58q45 -38 94 -119v230q0 243 -41 348q-36 107 -148 143
q-115 33 -360 33q-277 0 -369 -74q-82 -56 -82 -217q0 -45 5 -57h-295q0 199 57 307q58 115 152 168q88 45 229 66q115 16 319 16q294 0 471 -45q175 -48 271 -193q94 -151 94 -434v-1249zM1548 561q0 180 -53 250q-48 77 -180 102q-132 21 -406 21q-237 0 -340 -66
q-102 -64 -102 -258q0 -245 102 -323q98 -86 344 -86q248 0 357 16q119 17 200 98q78 72 78 246z" />
    <glyph glyph-name="agrave" unicode="&#x430;" horiz-adv-x="2077" 
d="M1835 0h-274l12 201q-75 -99 -160 -152q-65 -40 -184 -61q-114 -13 -299 -13q-269 0 -418 45q-157 43 -250 173q-86 136 -86 385q0 241 90 368q102 126 254 168q157 41 410 41q218 0 348 -20q117 -26 160 -58q45 -38 94 -119v230q0 243 -41 348q-36 107 -148 143
q-115 33 -360 33q-277 0 -369 -74q-82 -56 -82 -217q0 -45 5 -57h-295q0 199 57 307q58 115 152 168q88 45 229 66q115 16 319 16q294 0 471 -45q175 -48 271 -193q94 -151 94 -434v-1249zM1548 561q0 180 -53 250q-48 77 -180 102q-132 21 -406 21q-237 0 -340 -66
q-102 -64 -102 -258q0 -245 102 -323q98 -86 344 -86q248 0 357 16q119 17 200 98q78 72 78 246z" />
    <glyph glyph-name="aacute" unicode="&#xe1;" horiz-adv-x="2101" 
d="M1892 950q0 -432 -53 -614q-49 -194 -225 -283q-184 -82 -574 -82q-294 0 -462 49q-167 50 -246 160q-77 108 -103 283q-24 172 -24 487v869q0 239 65 401q77 160 234 229q153 78 442 78q255 0 357 17q131 19 167 57q50 50 50 131h295q0 -174 -62 -266q-62 -94 -225 -131
q-157 -41 -488 -41q-254 0 -352 -33q-104 -28 -147 -135q-41 -99 -41 -344q74 97 200 135q108 33 344 33q365 0 545 -86q183 -95 242 -295q61 -207 61 -619zM1597 950q0 351 -32 508q-39 151 -144 201q-105 53 -368 53q-276 0 -381 -53q-113 -57 -144 -205
q-28 -164 -28 -508q0 -225 16 -405q19 -141 70 -209q46 -71 159 -103q98 -28 304 -28q180 0 303 28q109 33 159 107q52 77 70 213q16 120 16 401z" />
    <glyph glyph-name="aacute" unicode="&#x431;" horiz-adv-x="2101" 
d="M1892 950q0 -432 -53 -614q-49 -194 -225 -283q-184 -82 -574 -82q-294 0 -462 49q-167 50 -246 160q-77 108 -103 283q-24 172 -24 487v869q0 239 65 401q77 160 234 229q153 78 442 78q255 0 357 17q131 19 167 57q50 50 50 131h295q0 -174 -62 -266q-62 -94 -225 -131
q-157 -41 -488 -41q-254 0 -352 -33q-104 -28 -147 -135q-41 -99 -41 -344q74 97 200 135q108 33 344 33q365 0 545 -86q183 -95 242 -295q61 -207 61 -619zM1597 950q0 351 -32 508q-39 151 -144 201q-105 53 -368 53q-276 0 -381 -53q-113 -57 -144 -205
q-28 -164 -28 -508q0 -225 16 -405q19 -141 70 -209q46 -71 159 -103q98 -28 304 -28q180 0 303 28q109 33 159 107q52 77 70 213q16 120 16 401z" />
    <glyph glyph-name="acircumflex" unicode="&#xe2;" horiz-adv-x="2044" 
d="M1835 569q0 -263 -94 -389q-98 -122 -254 -151q-148 -29 -447 -29h-794v1913h876q381 0 532.5 -115t151.5 -381q0 -162 -61 -278q-58 -110 -180 -156q118 -38 192 -156q78 -121 78 -258zM1516 1397q0 173 -78 233q-76 58 -320 58h-586v-574h590q160 0 246 21
q84 24 115 77q33 56 33 185zM1544 553q0 163 -53 233q-61 74 -152 86q-85 17 -307 17h-500v-664h508q241 0 340 21q100 17 131 86q33 54 33 221z" />
    <glyph glyph-name="acircumflex" unicode="&#x432;" horiz-adv-x="2044" 
d="M1835 569q0 -263 -94 -389q-98 -122 -254 -151q-148 -29 -447 -29h-794v1913h876q381 0 532.5 -115t151.5 -381q0 -162 -61 -278q-58 -110 -180 -156q118 -38 192 -156q78 -121 78 -258zM1516 1397q0 173 -78 233q-76 58 -320 58h-586v-574h590q160 0 246 21
q84 24 115 77q33 56 33 185zM1544 553q0 163 -53 233q-61 74 -152 86q-85 17 -307 17h-500v-664h508q241 0 340 21q100 17 131 86q33 54 33 221z" />
    <glyph glyph-name="atilde" unicode="&#xe3;" horiz-adv-x="1589" 
d="M1532 1679h-1000v-1675h-290v1909h1290v-234z" />
    <glyph glyph-name="atilde" unicode="&#x433;" horiz-adv-x="1589" 
d="M1532 1679h-1000v-1675h-290v1909h1290v-234z" />
    <glyph glyph-name="adieresis" unicode="&#xe4;" horiz-adv-x="2146" 
d="M2068 -324h-241v168q0 73 -33 119q-30 37 -123 37h-1192q-92 0 -123 -37q-25 -31 -32 -119v-168h-242v557h192q56 29 86 193q41 181 58 528q20 403 20 959h1434v-1680h196v-557zM1581 233v1446h-876q0 -376 -21 -749q-10 -268 -49 -492q-39 -177 -78 -205h1024z" />
    <glyph glyph-name="adieresis" unicode="&#x434;" horiz-adv-x="2146" 
d="M2068 -324h-241v168q0 73 -33 119q-30 37 -123 37h-1192q-92 0 -123 -37q-25 -31 -32 -119v-168h-242v557h192q56 29 86 193q41 181 58 528q20 403 20 959h1434v-1680h196v-557zM1581 233v1446h-876q0 -376 -21 -749q-10 -268 -49 -492q-39 -177 -78 -205h1024z" />
    <glyph glyph-name="aring" unicode="&#xe5;" horiz-adv-x="2056" 
d="M1868 586q0 -273 -90 -406q-93 -128 -258 -172q-177 -37 -480 -37q-236 0 -413 45q-165 53 -250 156q-98 123 -131 299q-41 208 -41 492q0 313 41 487q35 184 131 299q96 110 250 152q143 45 409 45q264 0 414 -45q146 -36 250 -140q91 -104 127 -274q41 -163 41 -438
v-144h-1376q6 -301 49 -446q42 -141 151 -201q120 -57 348 -57q238 0 349 24q116 21 151 86q41 64 41 213v62h287zM1581 1126q0 173 -20 295q-26 115 -82 176q-49 60 -164 95q-99 24 -279 24q-228 0 -344 -49q-109 -49 -151 -172q-39 -109 -45 -369h1085z" />
    <glyph glyph-name="aring" unicode="&#x435;" horiz-adv-x="2056" 
d="M1868 586q0 -273 -90 -406q-93 -128 -258 -172q-177 -37 -480 -37q-236 0 -413 45q-165 53 -250 156q-98 123 -131 299q-41 208 -41 492q0 313 41 487q35 184 131 299q96 110 250 152q143 45 409 45q264 0 414 -45q146 -36 250 -140q91 -104 127 -274q41 -163 41 -438
v-144h-1376q6 -301 49 -446q42 -141 151 -201q120 -57 348 -57q238 0 349 24q116 21 151 86q41 64 41 213v62h287zM1581 1126q0 173 -20 295q-26 115 -82 176q-49 60 -164 95q-99 24 -279 24q-228 0 -344 -49q-109 -49 -151 -172q-39 -109 -45 -369h1085z" />
    <glyph glyph-name="ae" unicode="&#xe6;" horiz-adv-x="2802" 
d="M2773 0h-377l-811 922h-41v-922h-287v922h-45l-811 -922h-376l962 1032l-815 881h352l688 -770h45v770h287v-770h41l688 770h353l-816 -881z" />
    <glyph glyph-name="ae" unicode="&#x436;" horiz-adv-x="2802" 
d="M2773 0h-377l-811 922h-41v-922h-287v922h-45l-811 -922h-376l962 1032l-815 881h352l688 -770h45v770h287v-770h41l688 770h353l-816 -881z" />
    <glyph glyph-name="ccedilla" unicode="&#xe7;" horiz-adv-x="1987" 
d="M1790 565q0 -246 -66 -372q-71 -130 -229 -177q-170 -49 -475 -49q-328 0 -508 62q-184 63 -250 196q-69 138 -69 373h278q0 -170 37 -254q34 -76 143 -115q118 -32 336 -32q242 0 340 28q113 34 139 99q37 73 37 233q0 324 -282 324h-578v225h578q123 0 180 29
q55 27 82 98q20 75 20 188q0 136 -28 193q-33 57 -127 82q-105 24 -328 24q-181 0 -291 -20q-100 -17 -151 -82q-50 -62 -50 -193h-274q6 222 82 328q81 111 246 156q155 41 438 41q326 0 496 -49q168 -50 217 -160q57 -103 57 -328q0 -178 -78 -299q-74 -123 -237 -147
q315 -61 315 -402z" />
    <glyph glyph-name="ccedilla" unicode="&#x437;" horiz-adv-x="1987" 
d="M1790 565q0 -246 -66 -372q-71 -130 -229 -177q-170 -49 -475 -49q-328 0 -508 62q-184 63 -250 196q-69 138 -69 373h278q0 -170 37 -254q34 -76 143 -115q118 -32 336 -32q242 0 340 28q113 34 139 99q37 73 37 233q0 324 -282 324h-578v225h578q123 0 180 29
q55 27 82 98q20 75 20 188q0 136 -28 193q-33 57 -127 82q-105 24 -328 24q-181 0 -291 -20q-100 -17 -151 -82q-50 -62 -50 -193h-274q6 222 82 328q81 111 246 156q155 41 438 41q326 0 496 -49q168 -50 217 -160q57 -103 57 -328q0 -178 -78 -299q-74 -123 -237 -147
q315 -61 315 -402z" />
    <glyph glyph-name="egrave" unicode="&#xe8;" horiz-adv-x="2105" 
d="M1855 0h-286v1556l-971 -1556h-74h-286v1909h286v-1561l975 1561h356v-1909z" />
    <glyph glyph-name="egrave" unicode="&#x438;" horiz-adv-x="2105" 
d="M1855 0h-286v1556l-971 -1556h-74h-286v1909h286v-1561l975 1561h356v-1909z" />
    <glyph glyph-name="eacute" unicode="&#xe9;" horiz-adv-x="2101" 
d="M1442 2347q0 -106 -107 -213q-111 -106 -303 -106q-195 6 -295 106q-110 112 -110 213h188q0 -64 70 -115q84 -41 147 -41q72 0 156 41q65 42 65 115h189zM1855 0h-286v1556l-971 -1556h-74h-286v1909h286v-1561l975 1561h356v-1909z" />
    <glyph glyph-name="eacute" unicode="&#x439;" horiz-adv-x="2101" 
d="M1442 2347q0 -106 -107 -213q-111 -106 -303 -106q-195 6 -295 106q-110 112 -110 213h188q0 -64 70 -115q84 -41 147 -41q72 0 156 41q65 42 65 115h189zM1855 0h-286v1556l-971 -1556h-74h-286v1909h286v-1561l975 1561h356v-1909z" />
    <glyph glyph-name="ecircumflex" unicode="&#xea;" horiz-adv-x="1880" 
d="M1835 0h-377l-811 922h-115v-922h-290v1913h290v-770h115l688 770h353l-816 -881z" />
    <glyph glyph-name="ecircumflex" unicode="&#x43a;" horiz-adv-x="1880" 
d="M1835 0h-377l-811 922h-115v-922h-290v1913h290v-770h115l688 770h353l-816 -881z" />
    <glyph glyph-name="edieresis" unicode="&#xeb;" horiz-adv-x="2019" 
d="M1765 0h-290v1679h-865v-1065q0 -141 -12 -245q-17 -103 -61 -193q-39 -76 -127 -131q-86 -49 -217 -49q-90 0 -140 8v201q140 0 205 65q61 73 61 287v1356h1446v-1913z" />
    <glyph glyph-name="edieresis" unicode="&#x43b;" horiz-adv-x="2019" 
d="M1765 0h-290v1679h-865v-1065q0 -141 -12 -245q-17 -103 -61 -193q-39 -76 -127 -131q-86 -49 -217 -49q-90 0 -140 8v201q140 0 205 65q61 73 61 287v1356h1446v-1913z" />
    <glyph glyph-name="igrave" unicode="&#xec;" horiz-adv-x="2785" 
d="M2535 0h-286v1659l-680 -1659h-369l-668 1659v-1659h-286v1913h446l692 -1712l693 1712h458v-1913z" />
    <glyph glyph-name="igrave" unicode="&#x43c;" horiz-adv-x="2785" 
d="M2535 0h-286v1659l-680 -1659h-369l-668 1659v-1659h-286v1913h446l692 -1712l693 1712h458v-1913z" />
    <glyph glyph-name="iacute" unicode="&#xed;" horiz-adv-x="2077" 
d="M1827 0h-291v905h-1004v-905h-290v1913h290v-774h1004v774h291v-1913z" />
    <glyph glyph-name="iacute" unicode="&#x43d;" horiz-adv-x="2077" 
d="M1827 0h-291v905h-1004v-905h-290v1913h290v-774h1004v774h291v-1913z" />
    <glyph glyph-name="icircumflex" unicode="&#xee;" horiz-adv-x="2089" 
d="M1888 958q0 -331 -41 -516q-42 -193 -139 -295q-93 -99 -254 -143q-157 -37 -414 -37q-340 0 -520 74q-171 74 -246 283q-73 201 -73 630q0 428 73 635q75 209 246 283q174 74 520 74q341 0 521 -74q175 -73 249 -283q78 -201 78 -631zM1593 958q0 304 -20 422
q-17 134 -70 213q-57 76 -160 95q-81 20 -303 20q-215 0 -303 -20q-93 -19 -151 -95q-57 -75 -74 -217q-9 -108 -16 -422q0 -262 24 -409q25 -152 86 -226q57 -69 156 -94q108 -20 278 -20q231 0 344 45q119 46 160 205q49 151 49 503z" />
    <glyph glyph-name="icircumflex" unicode="&#x43e;" horiz-adv-x="2089" 
d="M1888 958q0 -331 -41 -516q-42 -193 -139 -295q-93 -99 -254 -143q-157 -37 -414 -37q-340 0 -520 74q-171 74 -246 283q-73 201 -73 630q0 428 73 635q75 209 246 283q174 74 520 74q341 0 521 -74q175 -73 249 -283q78 -201 78 -631zM1593 958q0 304 -20 422
q-17 134 -70 213q-57 76 -160 95q-81 20 -303 20q-215 0 -303 -20q-93 -19 -151 -95q-57 -75 -74 -217q-9 -108 -16 -422q0 -262 24 -409q25 -152 86 -226q57 -69 156 -94q108 -20 278 -20q231 0 344 45q119 46 160 205q49 151 49 503z" />
    <glyph glyph-name="idieresis" unicode="&#xef;" horiz-adv-x="2064" 
d="M1819 0h-291v1679h-1000v-1675h-290v1909h1581v-1913z" />
    <glyph glyph-name="idieresis" unicode="&#x43f;" horiz-adv-x="2064" 
d="M1819 0h-291v1679h-1000v-1675h-290v1909h1581v-1913z" />
    <glyph glyph-name="eth" unicode="&#xf0;" horiz-adv-x="2081" 
d="M1892 963q0 -228 -20 -418q-25 -171 -98 -299q-78 -134 -222 -205q-152 -70 -393 -70q-215 0 -373 49q-151 49 -249 197v-1040h-291v2732h282l-12 -242q105 153 254 209q146 61 356 61q331 0 496 -110q160 -107 217 -316q53 -193 53 -548zM1597 967q0 302 -28 434
q-26 142 -135 220.5t-361 78.5q-254 0 -364 -70q-112 -68 -144 -213q-28 -171 -28 -450q0 -292 36 -447q31 -152 144 -233q124 -78 344 -78q259 0 364 78q112 76 144 225q28 143 28 455z" />
    <glyph glyph-name="eth" unicode="&#x440;" horiz-adv-x="2081" 
d="M1892 963q0 -228 -20 -418q-25 -171 -98 -299q-78 -134 -222 -205q-152 -70 -393 -70q-215 0 -373 49q-151 49 -249 197v-1040h-291v2732h282l-12 -242q105 153 254 209q146 61 356 61q331 0 496 -110q160 -107 217 -316q53 -193 53 -548zM1597 967q0 302 -28 434
q-26 142 -135 220.5t-361 78.5q-254 0 -364 -70q-112 -68 -144 -213q-28 -171 -28 -450q0 -292 36 -447q31 -152 144 -233q124 -78 344 -78q259 0 364 78q112 76 144 225q28 143 28 455z" />
    <glyph glyph-name="ntilde" unicode="&#xf1;" horiz-adv-x="2007" 
d="M1835 692q-12 -219 -61 -364q-46 -132 -148 -222q-96 -77 -237 -106q-163 -33 -377 -33q-265 0 -414 41q-154 44 -246 148q-85 103 -123 295q-36 190 -36 503t36 504q37 190 123 295q99 112 246 148q149 41 410 41q260 0 434 -50q165 -48 262 -180q96 -127 102 -360
q0 -17 -4 -29v-33h-278q0 157 -41 254q-33 77 -144 123q-102 37 -331 37q-192 0 -283 -29q-106 -32 -152 -106q-50 -68 -69 -217q-17 -202 -17 -389q0 -224 21 -390q11 -136 65 -225q50 -80 156 -110q104 -33 283 -33q237 0 336 41q108 36 151 139q38 86 57 307h279z" />
    <glyph glyph-name="ntilde" unicode="&#x441;" horiz-adv-x="2007" 
d="M1835 692q-12 -219 -61 -364q-46 -132 -148 -222q-96 -77 -237 -106q-163 -33 -377 -33q-265 0 -414 41q-154 44 -246 148q-85 103 -123 295q-36 190 -36 503t36 504q37 190 123 295q99 112 246 148q149 41 410 41q260 0 434 -50q165 -48 262 -180q96 -127 102 -360
q0 -17 -4 -29v-33h-278q0 157 -41 254q-33 77 -144 123q-102 37 -331 37q-192 0 -283 -29q-106 -32 -152 -106q-50 -68 -69 -217q-17 -202 -17 -389q0 -224 21 -390q11 -136 65 -225q50 -80 156 -110q104 -33 283 -33q237 0 336 41q108 36 151 139q38 86 57 307h279z" />
    <glyph glyph-name="ograve" unicode="&#xf2;" horiz-adv-x="1741" 
d="M1659 1675h-660v-1675h-290v1675h-660v234h1610v-234z" />
    <glyph glyph-name="ograve" unicode="&#x442;" horiz-adv-x="1741" 
d="M1659 1675h-660v-1675h-290v1675h-660v234h1610v-234z" />
    <glyph glyph-name="oacute" unicode="&#xf3;" horiz-adv-x="1712" 
d="M1655 1913l-541 -2024q-85 -341 -225 -548q-136 -205 -426 -205q-53 0 -135 20v234q67 -13 106 -13q104 0 172 62q66 60 111 155q48 114 69 213q12 51 23 97.5t22 95.5h-102l-692 1913h291l598 -1704l434 1704h295z" />
    <glyph glyph-name="oacute" unicode="&#x443;" horiz-adv-x="1712" 
d="M1655 1913l-541 -2024q-85 -341 -225 -548q-136 -205 -426 -205q-53 0 -135 20v234q67 -13 106 -13q104 0 172 62q66 60 111 155q48 114 69 213q12 51 23 97.5t22 95.5h-102l-692 1913h291l598 -1704l434 1704h295z" />
    <glyph glyph-name="ocircumflex" unicode="&#xf4;" horiz-adv-x="3015" 
d="M2818 958q0 -344 -37 -544q-40 -200 -176 -324q-137 -119 -418 -119q-175 0 -327 82q-149 87 -209 238v-1122h-291v1122q-60 -150 -209 -238q-152 -82 -336 -82q-206 0 -340 70q-119 65 -188 197q-61 142 -78 290q-16 222 -16 430q0 362 40 549q37 194 177 308
q142 110 426 110q365 0 524 -287v1102h291v-1102q152 287 540 287q278 0 414 -110q136 -106 172 -308q41 -185 41 -549zM2523 1020q0 258 -20 401q-20 129 -107 197q-87 70 -287 70q-245 0 -352 -156q-106 -171 -106 -520q0 -252 16 -377q17 -140 62 -242q51 -98 139 -139
q95 -45 241 -45q175 0 271 82q84 78 114 246q29 157 29 483zM1360 1008q0 365 -107 520q-104 160 -356 160q-187 0 -283 -70q-89 -76 -106 -201q-21 -150 -21 -401q0 -311 25 -484q32 -169 115 -245q91 -78 270 -78q188 0 299 78q93 75 131 250q33 173 33 471z" />
    <glyph glyph-name="ocircumflex" unicode="&#x444;" horiz-adv-x="3015" 
d="M2818 958q0 -344 -37 -544q-40 -200 -176 -324q-137 -119 -418 -119q-175 0 -327 82q-149 87 -209 238v-1122h-291v1122q-60 -150 -209 -238q-152 -82 -336 -82q-206 0 -340 70q-119 65 -188 197q-61 142 -78 290q-16 222 -16 430q0 362 40 549q37 194 177 308
q142 110 426 110q365 0 524 -287v1102h291v-1102q152 287 540 287q278 0 414 -110q136 -106 172 -308q41 -185 41 -549zM2523 1020q0 258 -20 401q-20 129 -107 197q-87 70 -287 70q-245 0 -352 -156q-106 -171 -106 -520q0 -252 16 -377q17 -140 62 -242q51 -98 139 -139
q95 -45 241 -45q175 0 271 82q84 78 114 246q29 157 29 483zM1360 1008q0 365 -107 520q-104 160 -356 160q-187 0 -283 -70q-89 -76 -106 -201q-21 -150 -21 -401q0 -311 25 -484q32 -169 115 -245q91 -78 270 -78q188 0 299 78q93 75 131 250q33 173 33 471z" />
    <glyph glyph-name="otilde" unicode="&#xf5;" horiz-adv-x="1737" 
d="M1716 0h-348l-496 770l-495 -770h-348l684 995l-611 918h336l434 -701l435 701h335l-610 -918z" />
    <glyph glyph-name="otilde" unicode="&#x445;" horiz-adv-x="1737" 
d="M1716 0h-348l-496 770l-495 -770h-348l684 995l-611 918h336l434 -701l435 701h335l-610 -918z" />
    <glyph glyph-name="odieresis" unicode="&#xf6;" horiz-adv-x="2126" 
d="M2023 -324h-245v168q0 79 -33 119q-31 37 -123 37h-1376v1913h291v-1680h999v1680h291v-1680h196v-557z" />
    <glyph glyph-name="odieresis" unicode="&#x446;" horiz-adv-x="2126" 
d="M2023 -324h-245v168q0 79 -33 119q-31 37 -123 37h-1376v1913h291v-1680h999v1680h291v-1680h196v-557z" />
    <glyph glyph-name="divide" unicode="&#xf7;" horiz-adv-x="2077" 
d="M1733 0h-291v836q-176 -95 -647 -95q-178 0 -291 29q-105 16 -185 115q-63 85 -69 282v746h291v-656q0 -116 20 -184q25 -53 78 -78q68 -20 184 -20q264 0 381 12q113 12 238 62v864h291v-1913z" />
    <glyph glyph-name="divide" unicode="&#x447;" horiz-adv-x="2077" 
d="M1733 0h-291v836q-176 -95 -647 -95q-178 0 -291 29q-105 16 -185 115q-63 85 -69 282v746h291v-656q0 -116 20 -184q25 -53 78 -78q68 -20 184 -20q264 0 381 12q113 12 238 62v864h291v-1913z" />
    <glyph glyph-name="oslash" unicode="&#xf8;" horiz-adv-x="3338" 
d="M3088 0h-2846v1909h290v-1676h988v1676h290v-1676h988v1676h290v-1909z" />
    <glyph glyph-name="oslash" unicode="&#x448;" horiz-adv-x="3338" 
d="M3088 0h-2846v1909h290v-1676h988v1676h290v-1676h988v1676h290v-1909z" />
    <glyph glyph-name="ugrave" unicode="&#xf9;" horiz-adv-x="3404" 
d="M3289 -324h-242v168q0 73 -32 119q-31 37 -123 37h-2646v1909h291v-1676h987v1676h291v-1676h987v1676h290v-1676h197v-557z" />
    <glyph glyph-name="ugrave" unicode="&#x449;" horiz-adv-x="3404" 
d="M3289 -324h-242v168q0 73 -32 119q-31 37 -123 37h-2646v1909h291v-1676h987v1676h291v-1676h987v1676h290v-1676h197v-557z" />
    <glyph glyph-name="uacute" unicode="&#xfa;" horiz-adv-x="2163" 
d="M1966 582q0 -239 -61 -361q-58 -115 -234 -172q-171 -49 -508 -49h-798v1679h-308v234h308h290v-688h508q330 0 504 -62q177 -67 238 -200q61 -141 61 -381zM1671 582q0 155 -37 233q-39 92 -147 127q-95 45 -324 45h-508v-749h508q205 0 328 28q104 29 143 103
q37 78 37 213z" />
    <glyph glyph-name="uacute" unicode="&#x44a;" horiz-adv-x="2163" 
d="M1966 582q0 -239 -61 -361q-58 -115 -234 -172q-171 -49 -508 -49h-798v1679h-308v234h308h290v-688h508q330 0 504 -62q177 -67 238 -200q61 -141 61 -381zM1671 582q0 155 -37 233q-39 92 -147 127q-95 45 -324 45h-508v-749h508q205 0 328 28q104 29 143 103
q37 78 37 213z" />
    <glyph glyph-name="ucircumflex" unicode="&#xfb;" horiz-adv-x="2806" 
d="M2576 0h-290v1913h290v-1913zM1843 582q0 -239 -61 -361q-64 -117 -234 -172q-169 -49 -508 -49h-798v1913h290v-688h508q338 0 504 -62q172 -67 238 -200q61 -141 61 -381zM1548 582q0 155 -37 233q-46 94 -147 127q-101 45 -324 45h-508v-749h508q205 0 328 28
q104 29 143 103q37 78 37 213z" />
    <glyph glyph-name="ucircumflex" unicode="&#x44b;" horiz-adv-x="2806" 
d="M2576 0h-290v1913h290v-1913zM1843 582q0 -239 -61 -361q-64 -117 -234 -172q-169 -49 -508 -49h-798v1913h290v-688h508q338 0 504 -62q172 -67 238 -200q61 -141 61 -381zM1548 582q0 155 -37 233q-46 94 -147 127q-101 45 -324 45h-508v-749h508q205 0 328 28
q104 29 143 103q37 78 37 213z" />
    <glyph glyph-name="udieresis" unicode="&#xfc;" horiz-adv-x="2036" 
d="M1835 582q0 -239 -61 -361q-64 -117 -234 -172q-171 -49 -508 -49h-799v1913h291v-688h508q336 0 504 -62q172 -67 238 -200q61 -141 61 -381zM1540 582q0 155 -37 233q-46 94 -147 127q-101 45 -324 45h-508v-749h508q202 0 332 28q100 30 139 103q37 78 37 213z" />
    <glyph glyph-name="udieresis" unicode="&#x44c;" horiz-adv-x="2036" 
d="M1835 582q0 -239 -61 -361q-64 -117 -234 -172q-171 -49 -508 -49h-799v1913h291v-688h508q336 0 504 -62q172 -67 238 -200q61 -141 61 -381zM1540 582q0 155 -37 233q-46 94 -147 127q-101 45 -324 45h-508v-749h508q202 0 332 28q100 30 139 103q37 78 37 213z" />
    <glyph glyph-name="yacute" unicode="&#xfd;" horiz-adv-x="2044" 
d="M1851 967q0 -313 -36 -504q-38 -198 -127 -299q-84 -107 -242 -152q-157 -41 -418 -41q-206 0 -369 33q-151 39 -245 115q-92 74 -144 221q-49 138 -61 365h278q0 -210 41 -328q46 -111 156 -139q110 -37 348 -37q236 0 352 65q113 68 144 209q28 164 28 434h-942v226
h942q0 239 -36 356q-38 119 -144 172q-105 53 -340 53q-217 0 -315 -28q-112 -40 -152 -119q-49 -89 -49 -266h-278v32q-4 13 -4 29q12 233 102 360q95 132 266 181q176 49 430 49q270 0 414 -41q156 -44 242 -148q91 -103 123 -295q36 -183 36 -503z" />
    <glyph glyph-name="yacute" unicode="&#x44d;" horiz-adv-x="2044" 
d="M1851 967q0 -313 -36 -504q-38 -198 -127 -299q-84 -107 -242 -152q-157 -41 -418 -41q-206 0 -369 33q-151 39 -245 115q-92 74 -144 221q-49 138 -61 365h278q0 -210 41 -328q46 -111 156 -139q110 -37 348 -37q236 0 352 65q113 68 144 209q28 164 28 434h-942v226
h942q0 239 -36 356q-38 119 -144 172q-105 53 -340 53q-217 0 -315 -28q-112 -40 -152 -119q-49 -89 -49 -266h-278v32q-4 13 -4 29q12 233 102 360q95 132 266 181q176 49 430 49q270 0 414 -41q156 -44 242 -148q91 -103 123 -295q36 -183 36 -503z" />
    <glyph glyph-name="thorn" unicode="&#xfe;" horiz-adv-x="2937" 
d="M2740 958q0 -330 -45 -503q-44 -195 -143 -299q-98 -104 -254 -148q-151 -41 -406 -41q-244 0 -401 37q-158 43 -254 143q-98 106 -139 279q-45 185 -45 471h-500v-897h-291v1913h291v-783h500q0 321 77 500q81 179 259 246q184 70 503 70q255 0 406 -41
q163 -46 254 -148q100 -106 143 -295q45 -173 45 -504zM2445 958q0 362 -41 512q-34 146 -143 197q-105 41 -369 41q-211 0 -299 -20q-91 -18 -151 -91q-55 -72 -78 -217q-16 -188 -16 -426q0 -254 20 -417q18 -142 74 -218q58 -71 155 -90q99 -24 295 -24q187 0 295 20
q106 27 156 94q56 69 82 218q20 163 20 421z" />
    <glyph glyph-name="thorn" unicode="&#x44e;" horiz-adv-x="2937" 
d="M2740 958q0 -330 -45 -503q-44 -195 -143 -299q-98 -104 -254 -148q-151 -41 -406 -41q-244 0 -401 37q-158 43 -254 143q-98 106 -139 279q-45 185 -45 471h-500v-897h-291v1913h291v-783h500q0 321 77 500q81 179 259 246q184 70 503 70q255 0 406 -41
q163 -46 254 -148q100 -106 143 -295q45 -173 45 -504zM2445 958q0 362 -41 512q-34 146 -143 197q-105 41 -369 41q-211 0 -299 -20q-91 -18 -151 -91q-55 -72 -78 -217q-16 -188 -16 -426q0 -254 20 -417q18 -142 74 -218q58 -71 155 -90q99 -24 295 -24q187 0 295 20
q106 27 156 94q56 69 82 218q20 163 20 421z" />
    <glyph glyph-name="ydieresis" unicode="&#xff;" horiz-adv-x="2015" 
d="M1774 4h-291v713h-729q-110 0 -172 -62q-66 -60 -66 -172v-483h-291l-4 483q0 131 90 242q89 107 185 119q-154 73 -226 176q-69 107 -69 303q0 216 69 347.5t238 184.5q172 58 475 58h791v-1909zM1483 950v729h-471q-210 0 -328 -32q-111 -37 -152 -107
q-36 -73 -36 -213q0 -130 41 -217q46 -82 155 -119q114 -41 316 -41h475z" />
    <glyph glyph-name="ydieresis" unicode="&#x44f;" horiz-adv-x="2015" 
d="M1774 4h-291v713h-729q-110 0 -172 -62q-66 -60 -66 -172v-483h-291l-4 483q0 131 90 242q89 107 185 119q-154 73 -226 176q-69 107 -69 303q0 216 69 347.5t238 184.5q172 58 475 58h791v-1909zM1483 950v729h-471q-210 0 -328 -32q-111 -37 -152 -107
q-36 -73 -36 -213q0 -130 41 -217q46 -82 155 -119q114 -41 316 -41h475z" />
    <glyph glyph-name="emdash" unicode="&#x2013;" 
d="M2347 864h-2183v266h2183v-266z" />
    <glyph glyph-name="endash" unicode="&#x2014;" horiz-adv-x="2855" 
d="M2855 864h-2855v266h2855v-266z" />
    <glyph glyph-name="quoteleft" unicode="&#x2018;" horiz-adv-x="733" 
d="M537 2626q-104 -8 -140 -50q-41 -35 -41 -143v-25q4 -12 4 -28h136v-369h-324v402q0 185 57 282q57 90 226 90h41q16 -4 41 -4v-155z" />
    <glyph glyph-name="quoteright" unicode="&#x2019;" horiz-adv-x="713" 
d="M537 2384q0 -182 -58 -279q-57 -94 -225 -94q-21 0 -41 4h-41v156q101 6 143 49q37 43 37 143q0 17 -4 25v29h-135v368h324v-401z" />
    <glyph glyph-name="quotedblleft" unicode="&#x201c;" horiz-adv-x="1278" 
d="M1114 2626q-104 -7 -139 -50q-41 -34 -41 -143q0 -12 4 -25v-28h135v-369h-323v402q0 188 57 282q64 90 225 90h41q17 -4 41 -4v-155zM537 2626q-104 -8 -140 -50q-41 -35 -41 -143v-25q4 -12 4 -28h136v-369h-324v402q0 185 57 282q57 90 226 90h41q16 -4 41 -4v-155z
" />
    <glyph glyph-name="quotedblright" unicode="&#x201d;" horiz-adv-x="1278" 
d="M1114 2384q0 -193 -57 -279q-57 -94 -226 -94q-20 0 -40 4h-41v156q100 6 143 49q37 43 37 143v25q0 25 -4 29h-135v368h323v-401zM537 2384q0 -182 -58 -279q-57 -94 -225 -94q-21 0 -41 4h-41v156q101 6 143 49q37 43 37 143q0 17 -4 25v29h-135v368h324v-401z" />
    <glyph glyph-name="bullet" unicode="&#x2022;" horiz-adv-x="2458" 
d="M1606 1171q0 -165 -119 -278q-121 -115 -283 -115q-163 0 -278 115q-115 121 -115 278q0 158 115 279q115 115 278 115q168 0 283 -115q119 -119 119 -279z" />
    <glyph glyph-name="c279" horiz-adv-x="2048" 
d="M1184 2150q0 -67 -49 -110q-43 -49 -111 -49t-111 49q-49 43 -49 110q0 60 49 111q43 49 111 49q70 0 115 -45q45 -53 45 -115zM1954 1311h-1860v168h1860v-168zM1184 639q0 -64 -49 -115q-47 -45 -111 -45q-60 0 -111 49q-49 51 -49 111q0 56 45 115q47 45 115 45
q62 0 115 -45q45 -53 45 -115z" />
    <glyph glyph-name="Ynotequal" horiz-adv-x="2048" 
d="M1516 2126h-1008v233h1008v-233z" />
    <glyph glyph-name="Yyen" horiz-adv-x="2048" 
d="M1368 2507l-586 -361l-98 148l541 409z" />
  </font>
</defs>
</svg>
